<svg xmlns="http://www.w3.org/2000/svg" viewBox="0 0 51.4 63.99"><defs><style>.cls-1{fill:#0d131a;}.cls-1,.cls-2,.cls-3,.cls-4,.cls-5,.cls-6,.cls-7{fill-rule:evenodd;}.cls-2{fill:#dbdcdc;}.cls-3{fill:#ffe100;}.cls-4{fill:#dcc200;}.cls-5{fill:#515457;}.cls-6{fill:#383839;}.cls-7{fill:#fff;}</style></defs><title>Asset 71@</title><g id="Layer_2" data-name="Layer 2"><g id="Layer_1-2" data-name="Layer 1"><path class="cls-1" d="M20.91,50.31h.56l1,.1.12.1a.42.42,0,0,1-.07.37l-.58,1.26-.19.3-.12-.21-.1-.24-.59-1.45,0-.23Z"/><path class="cls-2" d="M21.64,50.56c.46,0,.71,0,.74,0v0a7,7,0,0,1-.72,1.26l-.52-1.28.51,0Z"/><path class="cls-1" d="M32.18,51.46l1.56-.1,0,.23L33.12,53l-.22.46s-.09-.1-.17-.3l-.59-1.26a.5.5,0,0,1-.07-.37l.11-.1Z"/><path class="cls-2" d="M33.52,51.63,33,52.91a6.76,6.76,0,0,1-.73-1.25v0a2.54,2.54,0,0,1,.75,0l.51,0Z"/><path class="cls-1" d="M45.64,24.26a7,7,0,0,1,3.69.77,3.74,3.74,0,0,1,1.75,1.76,2.58,2.58,0,0,1,.09,2.32,1.63,1.63,0,0,1-1.31.91,3.58,3.58,0,0,1-2-.32,3,3,0,0,0-2.1,0A2.71,2.71,0,0,0,44,31.09c-.14.32-.49,1.5-1,3.55l-1.18,4.82a20.27,20.27,0,0,1-1.47,4.25,9,9,0,0,1-4.24,4,7.41,7.41,0,0,1-3.76.83c-.66-.06-1-.23-1.05-.53a1.69,1.69,0,0,1,.68-1.34,5.89,5.89,0,0,1,2-1.21q1.61-.61,3-4.13a20.38,20.38,0,0,0,1.41-5.56,25.26,25.26,0,0,1,1-5.15,11.28,11.28,0,0,1,2.35-4.59,5.89,5.89,0,0,1,3.91-1.81Z"/><path class="cls-3" d="M45.66,29.37A3.25,3.25,0,0,0,43.75,31a30.83,30.83,0,0,0-1,3.6q-.86,3.26-1.32,4.77a24,24,0,0,1-1.6,4.19,9.46,9.46,0,0,1-4,4.05,6.47,6.47,0,0,1-3.51.9c-.47-.05-.72-.21-.76-.48s.16-.69.6-1.12A5.56,5.56,0,0,1,34,45.75q1.78-.69,3.22-4.45a20.75,20.75,0,0,0,1.35-5.47,21.89,21.89,0,0,1,1.06-4.95A10.85,10.85,0,0,1,42,26.5a5.77,5.77,0,0,1,3.74-1.76,6.72,6.72,0,0,1,3.53.73A2.63,2.63,0,0,1,50.63,27a2.22,2.22,0,0,1,0,1.74,1.39,1.39,0,0,1-1,.81A2.78,2.78,0,0,1,48,29.27a3.09,3.09,0,0,0-2.3.1Z"/><path class="cls-4" d="M44.78,28.28a7.85,7.85,0,0,1,2.73-.17l2.22.08a1,1,0,0,0,.92-1.12,2.16,2.16,0,0,1,0,1.66,1.39,1.39,0,0,1-1,.81A2.78,2.78,0,0,1,48,29.27a3.09,3.09,0,0,0-2.3.1A3.25,3.25,0,0,0,43.75,31a30.83,30.83,0,0,0-1,3.6q-.86,3.26-1.32,4.77a24,24,0,0,1-1.6,4.19,9.46,9.46,0,0,1-4,4.05,6.47,6.47,0,0,1-3.51.9c-.47-.05-.72-.21-.76-.48s.16-.69.6-1.12A5.56,5.56,0,0,1,34,45.75l1.28-.29a5.29,5.29,0,0,0,1.59-.55q2-1.15,3.15-5A22.42,22.42,0,0,0,41,35a12.76,12.76,0,0,1,1.29-4.81,4.29,4.29,0,0,1,2.46-1.93Z"/><path class="cls-1" d="M42.17,37.23l0,0v0c-.48,1.73-.93,3.17-1.35,4.31l-.21.34a3.49,3.49,0,0,0-.19-1,1.82,1.82,0,0,0-.49-.83,2.84,2.84,0,0,0-2.24-.54l-.06-.17,0-.11a18.62,18.62,0,0,0,.69-3.4v-.06h.07a3.82,3.82,0,0,1,3.71,1.43Z"/><path class="cls-5" d="M42,37.31q-.65,2.37-1.2,3.93a2.25,2.25,0,0,0-.73-1.41,2.88,2.88,0,0,0-2.2-.62A21.26,21.26,0,0,0,38.55,36,3.73,3.73,0,0,1,42,37.31Z"/><path class="cls-6" d="M41,36.45a5.7,5.7,0,0,1,1,.86q-.65,2.37-1.2,3.93a2.25,2.25,0,0,0-.73-1.41l0,0L41,36.45Z"/><path class="cls-1" d="M36.83,42.14l0-.07L37,42a2.85,2.85,0,0,1,1.85.76,2.67,2.67,0,0,1,.64,1.84l-.11.11a9.42,9.42,0,0,1-1.76,2l-.15.12h-.09a2.69,2.69,0,0,0-.55-1.91,1.67,1.67,0,0,0-1.25-.65l0-.06.07-.13.51-.68a6.34,6.34,0,0,0,.76-1.18Z"/><path class="cls-5" d="M38.62,42.93a2.52,2.52,0,0,1,.57,1.69A9.89,9.89,0,0,1,37.6,46.4a2.64,2.64,0,0,0-.6-1.78A2,2,0,0,0,35.78,44l.41-.56A6.29,6.29,0,0,0,37,42.26a2.66,2.66,0,0,1,1.67.67Z"/><path class="cls-6" d="M37,44.62c.16.09.44,0,.84-.41a4.81,4.81,0,0,0,.93-1.1,2.91,2.91,0,0,1,.42,1.51A9.89,9.89,0,0,1,37.6,46.4a2.64,2.64,0,0,0-.6-1.78Z"/><path class="cls-1" d="M45.84,24.51a6.77,6.77,0,0,1,2.33.3h0l.11,0a3.82,3.82,0,0,1,.79,2.27,3,3,0,0,1-.27,1.22A3.15,3.15,0,0,1,48,29.46l0,.06-.13-.06a2.27,2.27,0,0,0-1.25-.11,4,4,0,0,0-1.42.48l-.15.07-.11,0a4.39,4.39,0,0,0-.42-2.78A4.34,4.34,0,0,0,43,25.59v-.13l.11-.08a5.72,5.72,0,0,1,2.78-.87Z"/><path class="cls-5" d="M48.1,25a3.66,3.66,0,0,1,.69,2.11,2.82,2.82,0,0,1-.08.68,5.35,5.35,0,0,1-.77,1.57,2.39,2.39,0,0,0-1.26-.15,4.1,4.1,0,0,0-1.43.45l0-.69a3.81,3.81,0,0,0-.6-2.19,4.68,4.68,0,0,0-1.41-1.28,5.36,5.36,0,0,1,2.62-.77A6.54,6.54,0,0,1,48.1,25Z"/><path class="cls-6" d="M45.23,28.18a8.93,8.93,0,0,1,3.37-.13,4.48,4.48,0,0,1-.66,1.27,2.39,2.39,0,0,0-1.26-.15,4.1,4.1,0,0,0-1.43.45l0-.69-.05-.75Z"/><path class="cls-1" d="M6.12,20.74l.59-.85a4.42,4.42,0,0,0,.5-3.05c0-.22,0-.29.1-.21l.3.44a6.47,6.47,0,0,1,.55,1.61,6.89,6.89,0,0,1,2.06-2.34,6.16,6.16,0,0,1,1.43-.69,1.47,1.47,0,0,1,.51-.13c.08,0,0,.09-.11.23a4.44,4.44,0,0,0-.78.94l.69-.42a3.9,3.9,0,0,1,.86-.25h.41l-.22.26a2.24,2.24,0,0,0-.32.8,7.32,7.32,0,0,1,1.48.58A5,5,0,0,1,16,19.14l0,.05L15.47,23l-2.5.23c-.13.23-.86,1.76-2.21,4.6a3.5,3.5,0,0,1,1,2.43A1.77,1.77,0,0,1,11,31.47a1.71,1.71,0,0,0-.73,1.3c-.05,1-.28,1.63-.7,1.88a1.06,1.06,0,0,1-.83.08,1.88,1.88,0,0,1-1.35.8,2.15,2.15,0,0,1-1.3-.25,1,1,0,0,1-.73.21,1.85,1.85,0,0,1-.86-.21l-.83,0a1.43,1.43,0,0,1-.86-.7l-.74,0A4.06,4.06,0,0,1,.77,33,6.55,6.55,0,0,1,0,31.07a4,4,0,0,1,.77-2.44,13.25,13.25,0,0,1,1.39-1.88A56,56,0,0,0,5.28,22l.84-1.28Z"/><path class="cls-3" d="M8.21,19.12A6.92,6.92,0,0,1,9.91,17,5.79,5.79,0,0,1,11.37,16l-.69,1.08c-.11.17-.16.27-.15.31s.14,0,.34-.13l.84-.56a2.88,2.88,0,0,1,.9-.44,3.07,3.07,0,0,0-.18.75l-.19,0c-.12,0-.14.07-.08.1l.34.1,1.25.45a4.93,4.93,0,0,1,2,1.51l-.5,3.51L12.81,23l0,.06-.94,1.75a21.35,21.35,0,0,0-1.28,2.85l-.13-.06a.37.37,0,0,0-.29,0q-.14.06,0,.21l.3.26a2.67,2.67,0,0,1,.62,1.06,3.53,3.53,0,0,1,.24,1.16l0,.32a2.26,2.26,0,0,1-.46.71l-.49.63a2,2,0,0,0-.31.8c-.11.84-.32,1.36-.61,1.55a.84.84,0,0,1-.69.07l-.1,0,0,.08a1.67,1.67,0,0,1-1.29.75,1.85,1.85,0,0,1-1.22-.23L6,34.86l-.07.1a.72.72,0,0,1-.6.19A1.67,1.67,0,0,1,4.5,35l-.06,0-.05,0H3.78A1.53,1.53,0,0,1,3,34.4l-.07-.08-.09,0a.65.65,0,0,1-.55-.07,3.35,3.35,0,0,1-1.11-1.42A6.58,6.58,0,0,1,.52,31l0-.26a4.5,4.5,0,0,1,.71-2.05A10.32,10.32,0,0,1,2.44,27c.31-.35,1.38-2,3.18-4.89L6.94,20a4.53,4.53,0,0,0,.68-2.18A4.45,4.45,0,0,1,8,19.09v.12c0,.08,0,.12,0,.12s.14-.07.21-.21Z"/><path class="cls-4" d="M12.49,21.52A5.39,5.39,0,0,1,13.86,21a3.43,3.43,0,0,0,1.8-1.1l-.42,2.88L12.81,23l0,.06-.94,1.75a21.35,21.35,0,0,0-1.28,2.85l-.13-.06a.37.37,0,0,0-.29,0q-.14.06,0,.21l.3.26a2.67,2.67,0,0,1,.62,1.06,3.53,3.53,0,0,1,.24,1.16l0,.32a2.26,2.26,0,0,1-.46.71l-.49.63a2,2,0,0,0-.31.8c-.11.84-.32,1.36-.61,1.55a.84.84,0,0,1-.69.07l-.1,0,0,.08a1.67,1.67,0,0,1-1.29.75,1.85,1.85,0,0,1-1.22-.23L6,34.86l-.07.1a.72.72,0,0,1-.6.19A1.67,1.67,0,0,1,4.5,35l-.06,0-.05,0H3.78A1.53,1.53,0,0,1,3,34.4l-.07-.08-.09,0a.65.65,0,0,1-.55-.07A3.42,3.42,0,0,1,1.14,32.8l.59.1.5-.06a1.24,1.24,0,0,0,1.31.08.66.66,0,0,0,.64.3,1,1,0,0,0,.76-.3,1.54,1.54,0,0,0,1.68-.06A1,1,0,0,0,7,32.14l.61-.75.47-.73a1.73,1.73,0,0,0,0,1c.09.23.25.26.48.1a3.4,3.4,0,0,0,1-2,4.38,4.38,0,0,0-.05-2.67c-.17-.4.84-2.24,3-5.54Z"/><path class="cls-1" d="M7.84,24.09l-.9.19a4.17,4.17,0,0,1,1.2.39,2.3,2.3,0,0,1,1,.73c.09.17-.09.21-.54.14l-1.67-.17a2.77,2.77,0,0,1,.93.72l.11.22-.26-.07A8.44,8.44,0,0,0,6,26.05a13.59,13.59,0,0,0-3.17.22l-.1-.07L2.88,26l1.25-1.94,0,0,.07-.1A7.28,7.28,0,0,1,6,23.64a6.67,6.67,0,0,1,1.81.22q.36.11.3.15l-.31.08Z"/><path class="cls-5" d="M6.34,24.41l.94.11a2.77,2.77,0,0,1,1.55.87l-1.52-.17H6.62l-.13,0s0,.06.09.13l.45.25.48.42a10,10,0,0,0-1.85-.3A11.5,11.5,0,0,0,3.12,26L4.3,24.2a10,10,0,0,1,1.57-.35A5.12,5.12,0,0,1,7.46,24l-1.14.25c-.22.06-.29.11-.19.14l.21,0Z"/><path class="cls-1" d="M13.16,20.12c.05-.23.09-.37.13-.39s.11.06.19.28l.48.92a13.72,13.72,0,0,1,.13-1.41c0-.13.05-.19.09-.19s.12.06.22.2l.8,1,.23.36.22.38v0L15.43,23l-1.56.14-.11,0a3.25,3.25,0,0,1-.6-1.45,7.28,7.28,0,0,1,0-1.49Z"/><path class="cls-5" d="M13.33,20.09A6.32,6.32,0,0,0,14,21.41c.1.18.15.16.16,0v-.32c0-.7,0-1.19.05-1.47A6.11,6.11,0,0,0,15,20.75l.48.62-.21,1.43L14,22.92a3,3,0,0,1-.51-1.12,5.4,5.4,0,0,1-.11-1.17v-.54Z"/><path class="cls-6" d="M14.17,21.37V21l1-.12.35.46-.21,1.43L14,22.92a3.39,3.39,0,0,1-.61-1.78l.46-.07.21.34c.1.18.15.16.16,0Z"/><path class="cls-1" d="M10.23,21.78l-.2-.13.23,0a4,4,0,0,1,1.46.5A9.5,9.5,0,0,1,13,23l.15.13-.19,0c-.36.66-.78,1.46-1.25,2.4l-.06.11-.08-.09a6,6,0,0,0-2.74-2c-.14,0-.21-.06-.2-.08l.18-.08,1.1-.16a4.44,4.44,0,0,0-1.43-.82l-.26-.07.26-.09,1.35-.14,1.08.12a1.7,1.7,0,0,0-.65-.48Z"/><path class="cls-5" d="M11.08,22.46q.26.08.09-.12l-.2-.23-.3-.26a6,6,0,0,1,2.12,1.26c-.37.66-.77,1.43-1.2,2.29a10.35,10.35,0,0,0-1.15-1.19,3.57,3.57,0,0,0-1.29-.7l.5-.09h.46c.27,0,.28,0,.05-.14a5.93,5.93,0,0,0-1.39-.91l1.52,0,.79.12Z"/><path class="cls-6" d="M11.84,22.43a6.65,6.65,0,0,1,.95.68c-.37.66-.77,1.43-1.2,2.29a11.08,11.08,0,0,0-1.09-1.13l.69-.92.65-.92Z"/><path class="cls-1" d="M6.75,19.93a2.63,2.63,0,0,1,1.51-.82,5.22,5.22,0,0,1,2-.17c.24,0,.24.09,0,.17a4.37,4.37,0,0,0-.81.28l.74,0,.76.07c.3.07.31.13,0,.17a7.29,7.29,0,0,0-1.75.47,1.6,1.6,0,0,1,.61.49l.11.18-.31,0a7.42,7.42,0,0,0-2.46.63,4.86,4.86,0,0,0-1.82,1.08v-.31l1.45-2.3Z"/><path class="cls-5" d="M8,19.45a6,6,0,0,1,1.7-.34,4,4,0,0,0-.62.27c-.1.06,0,.11.33.16l.92.09-.76.21a3.67,3.67,0,0,0-.62.23c-.15.09-.14.14,0,.15a1.41,1.41,0,0,1,.62.37,7.32,7.32,0,0,0-2,.43,7.2,7.2,0,0,0-1.82.86l1.07-1.7A2.52,2.52,0,0,1,8,19.45Z"/><path class="cls-1" d="M1.75,32.22a.35.35,0,0,1,0-.31c.05-.07.13,0,.23.14l.29.51.34.76.66,1.42-.51-.29L2.56,34l-.22-.56-.59-1.21Z"/><path class="cls-1" d="M2.91,32.28c-.08-.19-.08-.29,0-.29a.37.37,0,0,1,.23.15,1.13,1.13,0,0,1,.21.36l.27.61.54,1.14a3.11,3.11,0,0,0,.59.89l-.44-.06a2.19,2.19,0,0,1-.53-.82l-.41-1-.45-.94Z"/><path class="cls-1" d="M4.42,32.12c-.07-.16-.08-.24,0-.27a.35.35,0,0,1,.22.09,1.07,1.07,0,0,1,.25.38l.3.74c.51,1.22.94,1.91,1.3,2.09l-.45,0a1.85,1.85,0,0,1-.64-.86l-.45-1.14-.5-1.05Z"/><path class="cls-1" d="M7.41,32a2.72,2.72,0,0,1,.39-1.09l.2.14a3,3,0,0,0-.34,1,2.48,2.48,0,0,0,.07,1.43,1.41,1.41,0,0,0,.47.6,2,2,0,0,0,.84.35c.27,0,.3.1.07.17l-.42.09a1.69,1.69,0,0,1-1.2-1.11A2.76,2.76,0,0,1,7.41,32Z"/><path class="cls-1" d="M8,30c0-.13.06-.2.12-.18s.1.09.13.23A2,2,0,0,1,8,31a2,2,0,0,1-.83,1.11H6.92c0-.06,0-.13.14-.22A2.38,2.38,0,0,0,7.6,31,5.78,5.78,0,0,0,8,30Z"/><path class="cls-1" d="M38.15,35.89a13.65,13.65,0,0,1,.5,2.11,12.36,12.36,0,0,1,.16,1.9,7.74,7.74,0,0,1-1.18,4.22,7.23,7.23,0,0,1-1.51,1.74l1.07,2.25c.46,1,.76,1.72.93,2.18a21.76,21.76,0,0,0,4.12,3.36,24.44,24.44,0,0,1,2.18,1.62,3.45,3.45,0,0,1,1.15,1.67,1.82,1.82,0,0,1-.49,1.75A12.64,12.64,0,0,1,43.31,60a10.74,10.74,0,0,1-3,1.43,2.59,2.59,0,0,1-2.42-.17,6.36,6.36,0,0,1-1-1.08l-.82-1.31-1-1.73a25.76,25.76,0,0,0-1.74-2.51l-.5-.73a1.54,1.54,0,0,1-.23-.73,3.78,3.78,0,0,1,.27-1.3,4.85,4.85,0,0,1,.35-.78A7.07,7.07,0,0,0,32.82,50,6.62,6.62,0,0,0,32,48.53a14.5,14.5,0,0,1-6.89.71,14.68,14.68,0,0,1-4.54-1.45c-.36.26-.46.71-.29,1.34a2.91,2.91,0,0,0,.41,1,2.16,2.16,0,0,1,.72.44,2.06,2.06,0,0,1,.71,1q.32,1.24-2.32,3.09c-.46.33-1.2,1-2.23,1.85a8.7,8.7,0,0,1-1.87,1.18,3.51,3.51,0,0,1-1.7.24,10.56,10.56,0,0,1-3.17-1,4.58,4.58,0,0,1-2.64-2.53,2.51,2.51,0,0,1-.13-.68c0-.73.63-1.44,1.91-2.14a29.64,29.64,0,0,1,3.47-1.44L15,49.56c-.79-1.57-.45-3.05,1-4.42l.42-.51a15,15,0,0,1-1.56-3,8.42,8.42,0,0,1-.5-2.81,12.21,12.21,0,0,1,.48-3.31,26.54,26.54,0,0,1,1.41-3.59,5.19,5.19,0,0,0,.64-2.13,5.8,5.8,0,0,0-.7-2.69L15.49,26l-.16-.19.25,0,6.81-.49c4.47-.25,7.16-.22,8.09.07h0l.19.16a24.41,24.41,0,0,1,7.46,10.36Z"/><path class="cls-3" d="M38.18,39.58A8.2,8.2,0,0,1,37,44a5.09,5.09,0,0,1-1.19,1.43l-.2-.36c-.1-.2-.19-.26-.28-.2s-.1.19,0,.37l1,2.1a31.28,31.28,0,0,1,1.38,3.15l0,0a13.17,13.17,0,0,0,1.89,1.73c.44.35,1.13.84,2.07,1.48s1.76,1.23,2.16,1.57a3.9,3.9,0,0,1,1.22,1.54l.05.29a2,2,0,0,1-.54,1.2,7,7,0,0,1-1.51,1.31,9.36,9.36,0,0,1-2.82,1.3c-1,.26-1.75.21-2.17-.17a5.69,5.69,0,0,1-.89-1l-.76-1.21-1.08-1.74c-.54-.81-1.15-1.65-1.83-2.53a2.21,2.21,0,0,1-.43-1.94l.37-.9.34.26c.19.13.22.08.08-.16l-.78-1.79A9.27,9.27,0,0,0,32,47.69q-.14-.16-.24-.15c-.07,0-.09.07-.07.15l0,.39a13.7,13.7,0,0,1-7.28.52,14,14,0,0,1-4.59-1.67c-.23-.14-.36-.17-.37-.07a.55.55,0,0,0,.11.31,1.62,1.62,0,0,0,.58.45,1,1,0,0,0-.28.52l-.08.62A1.81,1.81,0,0,0,20,49.88l.36.45.21.05a1.5,1.5,0,0,1,.68.41,1.44,1.44,0,0,1,.45.73,1.75,1.75,0,0,1-.65,1.59,18.06,18.06,0,0,1-2,1.63l-1.27.95a17.42,17.42,0,0,1-1.93,1.36,2.86,2.86,0,0,1-1.7.43,8.8,8.8,0,0,1-3-1.06,4.57,4.57,0,0,1-2.5-2.51l0-.26c0-.64.71-1.34,2.14-2.07a32.26,32.26,0,0,1,3.54-1.46l1-.39.12-.06-.06-.12a3.53,3.53,0,0,1-.45-1.63,2.87,2.87,0,0,1,.54-1.64,6.11,6.11,0,0,1,1-1.07l.17-.18.07-.11.47.47c.69.39.77.3.25-.27a9.1,9.1,0,0,1-1.88-3.34,10.57,10.57,0,0,1-.55-3.3,12.34,12.34,0,0,1,.63-3.8,22.93,22.93,0,0,1,1.12-2.77,4.9,4.9,0,0,0,.48-2.12,6,6,0,0,0-.52-2.36A7.58,7.58,0,0,0,15.84,26L23,25.53c4.06-.22,6.52-.19,7.39.07l.13.12a23.76,23.76,0,0,1,7.07,10.41,11,11,0,0,1,.6,3.45Z"/><path class="cls-4" d="M37.58,36.13a11,11,0,0,1,.6,3.45,8.24,8.24,0,0,1-1.09,4.24,5.85,5.85,0,0,1-1.27,1.57l-.2-.36c-.1-.2-.19-.26-.28-.2s-.1.19,0,.37l1,2.1a31.28,31.28,0,0,1,1.38,3.15l0,0a13.17,13.17,0,0,0,1.89,1.73c.44.35,1.13.84,2.07,1.48s1.76,1.23,2.16,1.57a3.9,3.9,0,0,1,1.22,1.54l.05.29a2,2,0,0,1-.54,1.2,7,7,0,0,1-1.51,1.31,9.36,9.36,0,0,1-2.82,1.3c-1,.26-1.75.21-2.17-.17-.2-.18-.25-.52-.13-1a4.47,4.47,0,0,1,.62-1.35A5.67,5.67,0,0,1,41,57.17c1.65-.57,2.54-.9,2.66-1,.38-.22-.3-1-2-2.22l-3.4-2.28a3,3,0,0,0-1.66-.24c-.66,0-1-.06-1.07-.28a4.16,4.16,0,0,0-1-1.76c-.72-.84-1.39-1.18-2-1L32,47.69q-.14-.16-.24-.15c-.07,0-.09.07-.07.15l0,.39a13.51,13.51,0,0,1-5.69.73,8.32,8.32,0,0,0,4.75-1.76c2-1.6,2.86-4,2.65-7.31a10,10,0,0,0-5.69-8.57,15,15,0,0,0-5.13-1.6,16.27,16.27,0,0,0-5.4.2,6.19,6.19,0,0,0-.53-2.35,7.08,7.08,0,0,0-.8-1.4L23,25.53c4.06-.22,6.52-.19,7.39.07l.13.12a23.76,23.76,0,0,1,7.07,10.41Z"/><path class="cls-4" d="M18.64,49a2,2,0,0,1,.89-1.85l0,0a1.62,1.62,0,0,0,.58.45,1,1,0,0,0-.28.52l-.08.62A1.81,1.81,0,0,0,20,49.88l.36.45.21.05a1.5,1.5,0,0,1,.68.41,1.44,1.44,0,0,1,.45.73,1.75,1.75,0,0,1-.65,1.59,18.06,18.06,0,0,1-2,1.63l-1.27.95a17.42,17.42,0,0,1-1.93,1.36,2.86,2.86,0,0,1-1.7.43c-.21,0-.32-.22-.34-.6a3,3,0,0,1,.37-1.43c.2-.41,1.22-1,3.06-1.73s2.82-1.26,2.94-1.56a.71.71,0,0,0-.21-.91l-.64-.34A2.43,2.43,0,0,1,18.64,49Z"/><path class="cls-1" d="M19.47,47.43l-.15.09-1.2.16.26.1.32.09.18.09-.16.08a3.73,3.73,0,0,1-2.49,0c-.83-.29-1.25-.7-1.27-1.24l.21-.43a3.86,3.86,0,0,1,.43-.65l.45-.46.09-.09h.13a2.68,2.68,0,0,0,1.15,1,4.83,4.83,0,0,0,1.34.61l.11.08-.14.09-.37,0-.44,0,.67.23.71.14c.14,0,.19,0,.17.07Z"/><path class="cls-5" d="M18.34,48a3.57,3.57,0,0,1-1.38,0,2.93,2.93,0,0,1-1.22-.49,1.15,1.15,0,0,1-.56-.84,4.67,4.67,0,0,1,.92-1.16,3.35,3.35,0,0,0,2.15,1.35l-.61.08c-.32,0-.42,0-.31.07l.28.09.35.16.86.27-.47.06h-.54c-.24,0-.32,0-.23.07l.18.09.19.11.39.16Z"/><polygon class="cls-5" points="17.44 49.65 17.51 49.49 17.59 49.52 17.54 49.68 17.53 49.67 17.45 49.65 17.44 49.65 17.44 49.65"/><path class="cls-1" d="M35.58,45.46l.13.09,1,2v.16a7.49,7.49,0,0,1-1.27.63L34,48.7h-.18c-.08,0,0-.08.13-.14a1.8,1.8,0,0,0,.47-.34l.32-.4L33,48l-.15,0c-.07,0,0-.08.13-.13a3.81,3.81,0,0,0,1.18-.77l-.81,0-.18,0c-.08,0,0-.07.14-.14l1.08-.62,1.15-.79Z"/><path class="cls-6" d="M35,47.52a7.13,7.13,0,0,1-1.49.28l.73-.49.34-.3c.2-.15.19-.21,0-.18l-.39,0h-.42a11.5,11.5,0,0,0,1.88-1.08l.83,1.7a8.12,8.12,0,0,1-2.07.91l.48-.48.21-.27c.14-.16.11-.2-.09-.13Z"/><polygon class="cls-5" points="17.34 34.15 17.36 34.14 17.46 34.26 17.22 34.54 17.09 34.45 17.34 34.15 17.34 34.15"/><path class="cls-1" d="M17.33,33.13v0l1-.75c.17-.13.27-.17.31-.13s0,.16-.14.35c-.62.86-1,1.37-1.06,1.55l.77-.59c.14-.1.24-.13.29-.09s0,.14-.08.31c-.59,1-1.14,2.07-1.64,3.16a18.38,18.38,0,0,0-1.54,4.49L15,40.7a10.07,10.07,0,0,1-.05-3.8,15.89,15.89,0,0,1,.87-3.46l.15-.34,1-.87,1-.78a.45.45,0,0,1,.3-.13c.07,0,.06.09,0,.2s-.23.37-.42.72-.33.66-.43.89Z"/><path class="cls-5" d="M17.43,32.49a4.35,4.35,0,0,0-.25.59l-.13.33h.14l.73-.53.23-.21a7.24,7.24,0,0,0-.65,1l-.34.65a.51.51,0,0,0-.1.28s.07,0,.16-.05l.92-.7a19.52,19.52,0,0,0-3.08,6.47,7.71,7.71,0,0,1-.12-1.45,14.76,14.76,0,0,1,.32-2.9,14.39,14.39,0,0,1,.68-2.44l.76-.74a11.4,11.4,0,0,1,1.14-1,6.48,6.48,0,0,0-.41.75Z"/><path class="cls-1" d="M36.42,32.92l.14.21,0,.1a24.06,24.06,0,0,1,1.16,2.82,12.17,12.17,0,0,1,.57,2.51v0l-.05.26A16.25,16.25,0,0,0,35.62,41a12.65,12.65,0,0,0-1.78,2.13l-.27.38,0-.39c.07-.64.14-1.11.19-1.39a4.7,4.7,0,0,1,.19-.63A13.73,13.73,0,0,0,31.7,44c-.51.76-.95,1.49-1.32,2.17-.21.37-.35.53-.43.49s-.09-.22-.05-.58a15.87,15.87,0,0,1,.79-3A20.39,20.39,0,0,1,32,39.93l-1.06.78q-.32.3-.39.24c-.07,0,0-.25.1-.65A13.92,13.92,0,0,1,33.39,36a28.45,28.45,0,0,1,3-3.07Z"/><path class="cls-5" d="M35.75,40.38a10.39,10.39,0,0,0-1.89,2.41,6.6,6.6,0,0,1,.24-1.06,6,6,0,0,1,.37-1.09l.12-.33s-.11,0-.28.17a9.26,9.26,0,0,0-1.78,1.89c-.55.72-1.11,1.51-1.66,2.36l-.65,1A24.89,24.89,0,0,1,31.41,42a13.4,13.4,0,0,1,1.18-2.57l.14-.2-.26.1-.77.43-.67.42a16.25,16.25,0,0,1,2.73-4.07,29.56,29.56,0,0,1,2.75-2.73,24.16,24.16,0,0,1,1.11,2.7,12,12,0,0,1,.55,2.43,15.62,15.62,0,0,0-2.42,1.84Z"/><path class="cls-6" d="M37.62,36.11a12,12,0,0,1,.55,2.43,15.62,15.62,0,0,0-2.42,1.84,10.39,10.39,0,0,0-1.89,2.41,6.6,6.6,0,0,1,.24-1.06,6,6,0,0,1,.37-1.09l.12-.33s-.11,0-.28.17a7.11,7.11,0,0,0-1,.91,12.6,12.6,0,0,0-.53-4.1,28,28,0,0,1,3.7-3.88,24.16,24.16,0,0,1,1.11,2.7Z"/><path class="cls-1" d="M17.76,41.29a1.44,1.44,0,0,1,0-.59,30.31,30.31,0,0,1,1.79-6.81l2-4.27,1-2.23a6.91,6.91,0,0,0,.5-2V25.3h.08c4-.19,6.43-.16,7.28.11h0l1,.88.07.12a14.21,14.21,0,0,0-2.59,3.67c-.69,1.31-1.58,3.34-2.69,6.07a9.85,9.85,0,0,1,2-1.13,13.2,13.2,0,0,1,1.59-.6l.42,0s-.05.13-.2.29L29,35.77a11.82,11.82,0,0,1,1.46-.92,4.77,4.77,0,0,1,1.69-.49l.34,0c0,.05,0,.1-.13.18l-.73.53a5,5,0,0,0-.87.85,4.38,4.38,0,0,1,1.39-.43c.19,0,.3,0,.31,0l-.17.23a27.45,27.45,0,0,0-3.85,5.26,21.81,21.81,0,0,0-2.94,6.71c-.11.56-.27.58-.47.06a10.05,10.05,0,0,1-.77-4.17,11.6,11.6,0,0,1,1.25-5,19.26,19.26,0,0,0-3.08,1.95,21.28,21.28,0,0,0-3.1,2.54c-.17.19-.3.28-.38.26s-.14-.15-.15-.4a8,8,0,0,1,.1-1.46,8.3,8.3,0,0,1,.59-2.16l-.66.75-.67.84c-.21.25-.35.35-.4.27Z"/><path class="cls-5" d="M31.23,26.3a15.89,15.89,0,0,0-3.1,4.41A54.47,54.47,0,0,0,26,35.77l-.34.92-.1.25.23-.16a10.7,10.7,0,0,1,1.76-1.08,13.06,13.06,0,0,1,2.1-1,7.3,7.3,0,0,0-1.3,1.51c-.13.23-.09.27.12.11.39-.27.84-.56,1.36-.86a7.48,7.48,0,0,1,2.05-.87l-1,.84a7.2,7.2,0,0,0-.73.87c-.1.17-.06.21.11.12l.68-.29.93-.3a26.85,26.85,0,0,0-4.05,5.33,20.84,20.84,0,0,0-2.65,6.27,9.43,9.43,0,0,1-.46-2.95,14,14,0,0,1,.61-3.66,14.92,14.92,0,0,1,.82-2.42l.22-.53s-.19,0-.51.16a26.67,26.67,0,0,0-2.92,1.7,17.09,17.09,0,0,0-3.8,3.15l0-.47a7.87,7.87,0,0,1,.19-1.53,12.73,12.73,0,0,1,.38-1.48c.12-.36.17-.56.14-.6s-.2.07-.51.37a7.2,7.2,0,0,0-1.15,1.29A37.22,37.22,0,0,1,19.88,34q.64-1.75,1.86-4.29c.5-1,.83-1.74,1-2.21a7.71,7.71,0,0,0,.5-2c3.88-.2,6.27-.17,7.15.1l.83.74Z"/><path class="cls-6" d="M30.4,25.56l.83.74a17,17,0,0,0-3.39,5,10.49,10.49,0,0,0-3.57-1.14l-2.82.16.29-.62c.5-1,.83-1.74,1-2.21a7.71,7.71,0,0,0,.5-2c3.88-.2,6.27-.17,7.15.1Z"/><path class="cls-1" d="M34.59,50.62l-.14,0c-.07,0,0-.08.11-.13l1.32-.68-.82,0-.14,0c-.07,0,0-.08.13-.14A4.85,4.85,0,0,0,36,49.1l1-.72.14.1,0,.09.67,1.63.06.21a2,2,0,0,1-.77.73l-1.25.19c-.52,0-.6-.1-.25-.27l.61-.43Z"/><path class="cls-6" d="M34.92,50.47l1.3-.61c.18-.1.22-.17.14-.19l-.83-.06a7,7,0,0,0,1.54-.88l.62,1.49a2,2,0,0,1-.84.69L36,51l.58-.42c.32-.15.31-.19,0-.14l-.82,0-.77,0Z"/><path class="cls-1" d="M18.34,49c.14,0,.22,0,.22,0l-.17.14a4.5,4.5,0,0,1-.91.44l.87.14.79.12c.32,0,.31.08,0,.16l-.84.11,1.21.22c.16,0,.23,0,.21.08s-.08.06-.22.09a7.33,7.33,0,0,1-2.51.05,2.91,2.91,0,0,1-1.83-.85,6.32,6.32,0,0,1-.45-1.5l.07-.28a3.18,3.18,0,0,0,1.6.82,5.66,5.66,0,0,0,2,.26Z"/><path class="cls-5" d="M18.3,49.94l-.49,0c-.3,0-.39.05-.27.1l.26.07,1,.21c-1.77.08-3-.25-3.62-1a3.72,3.72,0,0,1-.28-.91,4.52,4.52,0,0,0,3.11.69l-.53.23-.39.14c-.1,0-.13.07-.09.11a.23.23,0,0,0,.1,0l1.42.23-.23,0Z"/><path class="cls-1" d="M40.59,14.86a.61.61,0,0,1,.07-.42c.08-.08.18,0,.31.18a6.28,6.28,0,0,1,.87,2.5c0,.36.1,1.14.14,2.34a2.74,2.74,0,0,0,.35-.76l.34-1c.1-.28.18-.36.24-.22a3.41,3.41,0,0,1,.18.76,10.79,10.79,0,0,1-.29,3A4.13,4.13,0,0,0,43.06,23l.81,2.47,1,3.1a17.49,17.49,0,0,1,.56,3.52l.15,2.61a4,4,0,0,1-.65,2.37,6,6,0,0,1-.93,1,2.08,2.08,0,0,1-1.14.59.45.45,0,0,1-.25-.09l-.23-.2a1.81,1.81,0,0,1-.86.29,1.22,1.22,0,0,1-.61-.28,1.29,1.29,0,0,1-1.76-.21l-.73.09a1.66,1.66,0,0,1-.74-.3,1.49,1.49,0,0,1-1,0,1.93,1.93,0,0,1-.87-.51,1.71,1.71,0,0,1-.44-.87,5,5,0,0,1-.11-1,5.94,5.94,0,0,0-.28-1.2,6.22,6.22,0,0,1-.24-.94,3.26,3.26,0,0,1,.11-.94,2,2,0,0,1,.61-.88,4.44,4.44,0,0,0,1.14-1.47,5.72,5.72,0,0,0,.31-2.65,16.4,16.4,0,0,0-.31-3c-1,.42-2,.8-2.81,1.16a14.36,14.36,0,0,0-3,1.51l-.75,0A2.67,2.67,0,0,1,29,26a4.25,4.25,0,0,1-.5-1.91v-.22a1.89,1.89,0,0,1,1.36-1.78l-.13-.13A23.36,23.36,0,0,0,33.2,20.4a8.43,8.43,0,0,0,2.7-1.84,4.62,4.62,0,0,1,2.39-2l.27-.78a5.12,5.12,0,0,0,.25-1.15,1.21,1.21,0,0,1,.07-.4c0-.1.15,0,.31.13a4.16,4.16,0,0,1,.58,1.2,12.83,12.83,0,0,1,.4,1.45,4.23,4.23,0,0,0,.3-1.1,5.68,5.68,0,0,0,.12-1.08Z"/><path class="cls-3" d="M39.57,15.91A6.05,6.05,0,0,1,40,17.35c0,.27.1.3.25.1a2.79,2.79,0,0,0,.49-.93,8.23,8.23,0,0,0,.14-1.19,8.75,8.75,0,0,1,.72,2.44,6.57,6.57,0,0,1,.16,2c0,.25,0,.37,0,.37l.29-.23a5.12,5.12,0,0,0,.73-1.37l0,.43a3.24,3.24,0,0,1,0,.7l-.07.58-.13,1,0,.48a7.49,7.49,0,0,0,.28,1.76l.64,2.23.93,3.22a19.22,19.22,0,0,1,.55,3.4L45,33.5,45.08,35A3.92,3.92,0,0,1,45,36a2.25,2.25,0,0,1-.44.89c-.69.91-1.27,1.37-1.73,1.39a.37.37,0,0,1-.35-.14l-.07-.07-.08,0a2.7,2.7,0,0,1-.83.24.69.69,0,0,1-.5-.21L40.9,38l-.1.08a.88.88,0,0,1-.44.14l-.56,0a.73.73,0,0,1-.48-.32l-.07-.15-.12.08a1,1,0,0,1-.64.12,1.17,1.17,0,0,1-.67-.28l-.28-.06a1,1,0,0,1-.78,0,2.06,2.06,0,0,1-.74-.47,1.65,1.65,0,0,1-.38-.72,5.5,5.5,0,0,1-.15-.88,5.33,5.33,0,0,0-.24-1.18A2.19,2.19,0,0,1,35.13,33,2.53,2.53,0,0,1,36,31.68a4.19,4.19,0,0,0,1.19-1.61,8.18,8.18,0,0,0,.22-2.75,20.13,20.13,0,0,0-.24-2.61L36.93,24l-.2-.45a.94.94,0,0,0-.25-.35c-.12-.1-.09.19.08.85-1,.45-2,.86-2.83,1.24A16.63,16.63,0,0,0,30.63,27h-.46a2.57,2.57,0,0,1-1-1.22,3.81,3.81,0,0,1-.39-1.88A1.59,1.59,0,0,1,30,22.33a24.37,24.37,0,0,0,3.57-1.63,8.61,8.61,0,0,0,2.78-2,5.19,5.19,0,0,1,1.34-1.3c.33-.23.63-.44.91-.6a9.32,9.32,0,0,0,.52-2,3,3,0,0,1,.49,1Z"/><path class="cls-4" d="M30.17,27a2.57,2.57,0,0,1-1-1.22,3.81,3.81,0,0,1-.39-1.88A1.59,1.59,0,0,1,30,22.33a22.56,22.56,0,0,0,3.23-1.46A13.66,13.66,0,0,0,36.07,19a8.36,8.36,0,0,0-1.56,3.42,2,2,0,0,0,.73,2.17A25.09,25.09,0,0,0,30.63,27Z"/><path class="cls-4" d="M42,21.79A4.41,4.41,0,0,1,42.32,20a1.64,1.64,0,0,0,.26-.76,3.15,3.15,0,0,1,.15-.72l0,.43a3.24,3.24,0,0,1,0,.7l-.07.58-.13,1,0,.48a7.49,7.49,0,0,0,.28,1.76l.64,2.23.93,3.22a19.22,19.22,0,0,1,.55,3.4L45,33.5,45.08,35A3.92,3.92,0,0,1,45,36a2.25,2.25,0,0,1-.44.89c-.69.91-1.27,1.37-1.73,1.39a.37.37,0,0,1-.35-.14l-.07-.07-.08,0a2.7,2.7,0,0,1-.83.24.69.69,0,0,1-.5-.21L40.9,38l-.1.08a.88.88,0,0,1-.44.14l-.56,0a.73.73,0,0,1-.48-.32l-.07-.15-.12.08a1,1,0,0,1-.64.12,1.17,1.17,0,0,1-.67-.28l-.28-.06a1.27,1.27,0,0,1-1.28-.24A1.41,1.41,0,0,0,36.8,36a9.09,9.09,0,0,1,0-1.44A1,1,0,0,1,37.2,34l.34-.23c.07-.09.15.12.25.62a2,2,0,0,0,1.4,1.17l1-.06a4.8,4.8,0,0,1,1.09-.23l1.72.07c.65,0,1.06-.11,1.24-.35q.64-.84-.55-5.1-1.46-4.56-1.64-5.6a11.51,11.51,0,0,1-.1-2.48Z"/><path class="cls-1" d="M39.29,19.8l-.08-.09c0-.05,0-.06.14,0a6.14,6.14,0,0,1,3.35,1.75v.2a14.12,14.12,0,0,0,.61,2.84l0,.36a10,10,0,0,0-2-1.39,6,6,0,0,0-1.62-.67l-.26-.07s0-.07.08-.14a2.62,2.62,0,0,1,.67-.44L39,21.68a5.24,5.24,0,0,0-1.08-.28l-.24,0s.07-.1.19-.18A3.77,3.77,0,0,1,39,20.73l1-.14a5.87,5.87,0,0,0-.66-.79Z"/><path class="cls-5" d="M40.28,20.66l-.65-.75a6.63,6.63,0,0,1,2.93,1.74,12.46,12.46,0,0,0,.53,2.6,7,7,0,0,0-1.59-1,9.53,9.53,0,0,0-1.77-.62,1.79,1.79,0,0,1,.72-.38c.14,0,.14-.07,0-.15a6.54,6.54,0,0,0-2.31-.79,3.91,3.91,0,0,1,1.29-.42l.76-.06c.14,0,.16,0,.07-.13Z"/><path class="cls-6" d="M42,21.14l.6.51a12.46,12.46,0,0,0,.53,2.6,7.84,7.84,0,0,0-1.13-.8,9.91,9.91,0,0,1,0-2.31Z"/><path class="cls-1" d="M41,23.85c.17,0,.17.08,0,.15a6,6,0,0,0-.85.65,8.32,8.32,0,0,0-.9.84l.56-.08.3,0c.06,0,0,.07-.07.14a13.82,13.82,0,0,0-1.27,1.21,12.1,12.1,0,0,0-1.5,1.78l-.14.13V27.33c0-.92-.1-1.66-.18-2.2v0L37,25a3.61,3.61,0,0,1,2.27-1.21c.11,0,.13,0,.06.17l-.2.29a3.79,3.79,0,0,1,1.9-.37Z"/><path class="cls-5" d="M38.69,24.55l.17,0,.66-.33A3.28,3.28,0,0,1,40.71,24a5.8,5.8,0,0,0-1.19,1l-.51.6-.07.1.17,0,.35-.11.38,0a10.53,10.53,0,0,0-2.46,2.51l-.18-3A3.71,3.71,0,0,1,39.13,24l-.37.49-.07.11Z"/><path class="cls-1" d="M45.12,32.27v.06c0,.28,0,.4-.08.35a14.48,14.48,0,0,0-2.16-1.63A8,8,0,0,0,41,30.1c-.15,0-.1-.11.17-.19l1-.19-2.43-1.11-.12-.05s0-.08.16-.1L41,28.4l1.28,0-.67-.77-.1-.09c0-.05,0-.07.17-.06l1.09.18a6.44,6.44,0,0,1,1.62.51l.09.29a22.18,22.18,0,0,1,.66,3.85Z"/><path class="cls-5" d="M42.42,28.51q.26,0,.06-.12a6,6,0,0,0-.58-.71,11.6,11.6,0,0,1,2.41.82,20.32,20.32,0,0,1,.63,3.59A11.66,11.66,0,0,0,41.44,30l1-.15c.14,0,.15-.06,0-.16l-2.37-1.08,1.48-.06.85,0Z"/><path class="cls-6" d="M44.28,31.56,43.7,29.8c-.27-.75-.45-1.35-.56-1.77a11.43,11.43,0,0,1,1.17.47,20.32,20.32,0,0,1,.63,3.59l-.66-.53Z"/><path class="cls-1" d="M36,24.41l0,.08L34,25.41l-.05-.05a6.7,6.7,0,0,1-.76-1.54,4.22,4.22,0,0,1-.24-1.55c0-.43.17-.48.42-.14l.3.43a6.33,6.33,0,0,1,.2-1c0-.22.09-.34.12-.35s.15.06.3.29l.41.79.24-.4c.11-.16.2-.23.25-.22s.09.12.11.3a9.15,9.15,0,0,0,.24,1.18A6.56,6.56,0,0,0,36,24.41Z"/><path class="cls-5" d="M33.79,23a7.66,7.66,0,0,1,.26-1.52,9.61,9.61,0,0,0,.55,1.21c0,.22.1.21.15,0a2.43,2.43,0,0,1,.18-.49C35,22,35,22,35,22a3.91,3.91,0,0,0,.23,1.25,10.17,10.17,0,0,0,.52,1.15l-1.79.8a5,5,0,0,1-.89-2.85l.27.32.26.39c.09.13.14.11.15-.05Z"/><path class="cls-6" d="M34.4,22.33A11.48,11.48,0,0,0,34,25.19l0,0a5,5,0,0,1-.89-2.85l.27.32.26.39c.09.13.14.11.15-.05a7.66,7.66,0,0,1,.26-1.52l.35.83Z"/><path class="cls-1" d="M37.23,35.22c-.66-.26-.94-1-.83-2.14q0-.19.12-.09a.41.41,0,0,1,.09.33,1.27,1.27,0,0,0,.77,1.44l-.15.46Z"/><path class="cls-1" d="M41.05,35.47c.05.07,0,.15,0,.27l-1.34,1.87a1.43,1.43,0,0,1-.79.58,1.46,1.46,0,0,1-1.3-.27l-.34-.32a1.32,1.32,0,0,1-.28-.68,10.67,10.67,0,0,1,.14-1.8c.12-.89.2-1.41.25-1.57s.08-.19.15-.19.11.09.1.26a32.15,32.15,0,0,0-.21,3.24,1,1,0,0,0,.81.89,1,1,0,0,0,1.19-.28l1-1.36.4-.55c.1-.13.18-.16.23-.09Z"/><path class="cls-1" d="M43,36.35l-1,1-1,1-.2,0c-.1,0-.08-.1.06-.2l.48-.41.5-.52c.33-.35.65-.65,1-.92a.29.29,0,0,1,.3-.09c.1,0,.08.11,0,.2Z"/><path class="cls-1" d="M42.27,38.12l1-.89.78-.79q.11-.16.21-.09c.06,0,.06.14,0,.26l-.82.83-1,.89H42.2c-.12,0-.1-.09.07-.22Z"/><path class="cls-1" d="M9.25,53.31l.28.06.24.16a2.32,2.32,0,0,1,.41,1.3,4.6,4.6,0,0,1,0,1.13c0,.07-.13.13-.35.18L9,56.35A6.54,6.54,0,0,0,7.78,57a12.16,12.16,0,0,0-1.22.87c-.15.13-.26.18-.33.13s-.1-.14-.14-.33a2.11,2.11,0,0,1,0-.84,3.51,3.51,0,0,1,.43-1.29,4.82,4.82,0,0,1,1.34-1.42,3.75,3.75,0,0,1,1.4-.77Z"/><path class="cls-7" d="M6.44,57.58a4.2,4.2,0,0,1,.42-2,4.59,4.59,0,0,1,1.27-1.36c.58-.44,1-.64,1.16-.59s.49.41.63,1a2.14,2.14,0,0,1,.09,1c0,.08-.15.15-.37.22L9.09,56a5.75,5.75,0,0,0-1.7.85,5.92,5.92,0,0,0-.95.76Z"/><path class="cls-2" d="M10,55.14v.46c0,.08-.15.15-.37.22L9.09,56a6.46,6.46,0,0,0-1.92,1,6,6,0,0,1,2.69-2.61l.15.77Z"/><path class="cls-1" d="M14,55.14a1.9,1.9,0,0,1,.28.65,3.25,3.25,0,0,1,.1.91,1.32,1.32,0,0,1-.22.76,1.12,1.12,0,0,1-.56.29l-.73.38A11.81,11.81,0,0,0,11,59.36a2.22,2.22,0,0,1-.68.42c-.17,0-.3-.07-.38-.32a2.63,2.63,0,0,1,.15-2.25,6.93,6.93,0,0,1,1.58-1.6,5,5,0,0,1,1.46-.94c.31-.06.6.1.87.47Z"/><path class="cls-7" d="M14,56.06a2.46,2.46,0,0,1,.06.69.75.75,0,0,1-.28.56l-.59.29a7.66,7.66,0,0,0-.93.48l-.9.62-.65.5-.42.25q-.09,0-.15-.54a3.25,3.25,0,0,1,.22-1.44A4.42,4.42,0,0,1,11.57,56a5.11,5.11,0,0,1,1.3-.93.65.65,0,0,1,.93.37l.2.58Z"/><path class="cls-2" d="M14.06,56.75a.75.75,0,0,1-.28.56l-.59.29a7.66,7.66,0,0,0-.93.48l-.9.62-.65.5-.42.25-.09-.27a7.85,7.85,0,0,1,1.52-2.1,6.72,6.72,0,0,1,2.16-1.43,2.86,2.86,0,0,1,.18,1.1Z"/><path class="cls-1" d="M44.15,56.84a.84.84,0,0,1,.27-.11h.27a3.74,3.74,0,0,1,1.26,1A4.67,4.67,0,0,1,47,59.35a3.53,3.53,0,0,1,.21,1.35,2.4,2.4,0,0,1-.15.82c-.07.18-.14.28-.2.3s-.16,0-.3-.18a10.54,10.54,0,0,0-1-1.07,5.52,5.52,0,0,0-1.11-.82l-.78-.34c-.21-.09-.32-.17-.34-.26A2.29,2.29,0,0,1,43.48,58a2.17,2.17,0,0,1,.67-1.16Z"/><path class="cls-7" d="M44.6,57c.2,0,.55.25,1,.8a4.63,4.63,0,0,1,1,1.54,4.16,4.16,0,0,1,.06,2.07v0a6.64,6.64,0,0,0-.81-.92,6,6,0,0,0-1.52-1.14l-.52-.24c-.2-.11-.31-.2-.33-.28a2.12,2.12,0,0,1,.27-1c.23-.56.49-.86.78-.89Z"/><path class="cls-1" d="M40.82,58.44a3.93,3.93,0,0,1,1.19,1,6.77,6.77,0,0,1,1.37,2,2.61,2.61,0,0,1-.24,2.24c-.12.23-.26.32-.41.26a2.49,2.49,0,0,1-.62-.54,11.83,11.83,0,0,0-1.61-1.54l-.67-.49a1.18,1.18,0,0,1-.5-.38,1.36,1.36,0,0,1-.09-.8,3.16,3.16,0,0,1,.27-.88,1.82,1.82,0,0,1,.38-.59.87.87,0,0,1,.93-.31Z"/><path class="cls-7" d="M39.54,60.32a2.74,2.74,0,0,1,.46-1.2.66.66,0,0,1,1-.21,5,5,0,0,1,1.12,1.15,4.19,4.19,0,0,1,.94,1.6,3.1,3.1,0,0,1,0,1.46c-.09.34-.17.51-.23.51l-.36-.33-.57-.6L41.08,62l-.84-.63a3.86,3.86,0,0,1-.52-.4.7.7,0,0,1-.18-.6Z"/><path class="cls-2" d="M43.05,61.66a3.1,3.1,0,0,1-.1,1.65,10.33,10.33,0,0,0-2.72-4.42l.76,0a5,5,0,0,1,1.12,1.15,4.19,4.19,0,0,1,.94,1.6Z"/><path class="cls-1" d="M27.12.41A2,2,0,0,1,27.73,0c.1,0,.07.24-.09.68a45.83,45.83,0,0,0-2.1,13.93,5.44,5.44,0,0,1,1.62.78,4.32,4.32,0,0,1,1,.9l1.58-1.22L31.21,14a1.84,1.84,0,0,1,.11-1.75,1.73,1.73,0,0,1,1.36-.76,1.66,1.66,0,0,1,1.35.58,1.64,1.64,0,0,1,.37.92,1.57,1.57,0,0,1-.1.91,1.55,1.55,0,0,1-1.16,1l-1,0-2.28,3.82.52,1L31,21.17a1.39,1.39,0,0,0,.47.64,5.38,5.38,0,0,0,.83.51l.87.45a10.16,10.16,0,0,1,1.09.67A1.42,1.42,0,0,1,35,25c-.17.77-1,1.44-2.45,2s-3,1.2-4.31,1.77L25.68,29.9l-2.12,1a7.18,7.18,0,0,1-2.68.65,5.64,5.64,0,0,1-2.8-1c-.61-.38-1.5-.88-2.68-1.48-2.55-1.31-4.06-2.09-4.51-2.35a1.78,1.78,0,0,1-1-1.46,1.32,1.32,0,0,1,.48-1.16l.82-.53,1.3-.78,1.05-.64.77-.52a1.45,1.45,0,0,0,.45-.86,16.26,16.26,0,0,1,.39-1.62L14,17.44a15,15,0,0,0-1.48-1.85,1.6,1.6,0,0,1-1.72-.32,1.54,1.54,0,0,1-.48-.69,1.28,1.28,0,0,1-.1-.73,1.51,1.51,0,0,1,1-1.29,1.43,1.43,0,0,1,1.27,0,1.69,1.69,0,0,1,.91,1.46,2.52,2.52,0,0,1-.23.91l3.14,2a3.56,3.56,0,0,1,1.17-1.09,5.27,5.27,0,0,1,1.64-.71,15.33,15.33,0,0,1-.85-3.8,14.43,14.43,0,0,1,.33-4.84c.18-.73.32-.84.42-.31a18.31,18.31,0,0,0,.91,2.82,17.87,17.87,0,0,0,1.81,3.72,19.67,19.67,0,0,1,1.93-7.18A14.62,14.62,0,0,1,27.12.41Z"/><path class="cls-3" d="M27.19,1.09Q26,3.51,25.44,9.24c-.18,1.91-.28,3.68-.31,5.29-.23,0-.34,0-.34.1s.05.1.17.13a6,6,0,0,1,2.22,1.11l.76.72s-.08,0-.17.16-.07.15,0,.17.11,0,.2-.07l3.57-2.71a2.51,2.51,0,0,1-.16-.9,1.21,1.21,0,0,1,.18-.76A1.28,1.28,0,0,1,32.71,12a1.25,1.25,0,0,1,.91.42,1.66,1.66,0,0,1,.33.74,1.14,1.14,0,0,1-.05.72,1.17,1.17,0,0,1-1.15.76l-.8-.17-2.53,4.34c-.1.15-.12.25-.06.29s.16,0,.29-.14a14.21,14.21,0,0,1,1,2.37,1.68,1.68,0,0,0,.5.74l.83.52a8.06,8.06,0,0,1,1.86,1.3,1.1,1.1,0,0,1,0,1.71,3.75,3.75,0,0,1-1.67,1.05c-.35.11-1.76.72-4.21,1.8l-4.5,2a5.59,5.59,0,0,1-5.17-.15c-.31-.18-1.25-.68-2.84-1.51a45.64,45.64,0,0,1-4.25-2.34,1.93,1.93,0,0,1-.7-.95,1,1,0,0,1,.29-1.16,20.12,20.12,0,0,1,2.07-1.41c.91-.58,1.45-.94,1.61-1.08a2.08,2.08,0,0,0,.59-1.16,8.25,8.25,0,0,1,.4-1.61c.11-.27.11-.38,0-.33l-.22.15q-.54-.81-1.71-2.25l-1.07-1.27a1.59,1.59,0,0,1-.81.12,1.26,1.26,0,0,1-.7-.27,1.37,1.37,0,0,1-.38-.58,1.13,1.13,0,0,1,0-.62,1.36,1.36,0,0,1,.83-1,1.12,1.12,0,0,1,1,0,1.18,1.18,0,0,1,.63,1.22,2.1,2.1,0,0,1-.2.82l3.24,2.24-.05.28c0,.13.14.07.37-.2a7.49,7.49,0,0,1,1.21-1.1,5.59,5.59,0,0,1,1.63-.78c.07.13.15.2.24.2s.1-.14,0-.41a15.73,15.73,0,0,1-.93-5.38,11.4,11.4,0,0,1,.3-2.68,20.42,20.42,0,0,0,1.38,3.62,15.82,15.82,0,0,0,1.61,2.78c.11.13.18.15.21.07a.73.73,0,0,0-.06-.43A24.8,24.8,0,0,1,24.38,5a10.62,10.62,0,0,1,2.75-3.92.06.06,0,0,0,.06,0Z"/><path class="cls-4" d="M13.23,16.2a13.41,13.41,0,0,1,2.36,2.4l-.13.09-.19.15q-.58-.89-2-2.64Z"/><path class="cls-4" d="M31.84,14.33c.91.06,1.49-.17,1.73-.68a1.87,1.87,0,0,0,0-1.26,1.66,1.66,0,0,1,.33.74,1.14,1.14,0,0,1-.05.72,1.17,1.17,0,0,1-1.15.76l-.8-.17-2.53,4.34c-.1.15-.12.25-.06.29s.16,0,.29-.14a14.21,14.21,0,0,1,1,2.37,1.68,1.68,0,0,0,.5.74l.83.52a8.06,8.06,0,0,1,1.86,1.3,1.1,1.1,0,0,1,0,1.71,3.75,3.75,0,0,1-1.67,1.05c-.35.11-1.76.72-4.21,1.8l-3.27,1.45,3.77-2.21a13.59,13.59,0,0,0,3.08-2.25,1.06,1.06,0,0,0,.31-1,4.39,4.39,0,0,0-.69-1,7.8,7.8,0,0,1-1.76-3.93.54.54,0,0,1-.43.14c-.2,0-.28-.06-.24-.17s.5-1,1.3-2.34a21.57,21.57,0,0,1,1.76-2.75Z"/><path class="cls-4" d="M27.13,1.12a.06.06,0,0,0,.06,0Q26,3.51,25.44,9.24c-.18,1.91-.28,3.68-.31,5.29-.23,0-.34,0-.34.1s.05.1.17.13a5.83,5.83,0,0,1,1.29.5,3.33,3.33,0,0,0-2.22,0,10.18,10.18,0,0,0-2.09.82c-.37.19-.81-.52-1.34-2.12a26.56,26.56,0,0,1-1.12-4.91,26.3,26.3,0,0,0,1.23,2.66,12.38,12.38,0,0,0,1.13,1.86l.13.12q.13.25.21.27c.08,0,.14-.14.18-.44a41.13,41.13,0,0,1,.88-4.49,31.71,31.71,0,0,1,2-5.59,8.11,8.11,0,0,1,1.89-2.34Z"/><path class="cls-1" d="M18.6,19.48a9,9,0,0,0,1.26,2.34,20,20,0,0,1,3.54-3.08,13.11,13.11,0,0,1,2.72-1.48l.2-.05-.11.19-.55.68.88-.16.85-.1h.27l-.23.14a24.39,24.39,0,0,0-4.69,4.21,26.17,26.17,0,0,0-2.6,3.36c-.12.2-.22.3-.3.29l-.28-.22a10.62,10.62,0,0,1-2-4.2,24.22,24.22,0,0,1-.81-3.81v-.13c0-.06.06,0,.13.06l.41.57L17.37,17l0-.12q.06-.09.12.12c.11.33.47,1.15,1.07,2.47Z"/><path class="cls-5" d="M26,18.23,27.07,18a23,23,0,0,0-4.16,3.52,31.92,31.92,0,0,0-3.09,4,10.58,10.58,0,0,1-1.88-3.76,25.17,25.17,0,0,1-1-3.88l.11.18c.2.34.32.51.38.5v-.18l.07-.88a25.51,25.51,0,0,0,1.1,2.56,12.5,12.5,0,0,0,1,1.86c.08.11.15.17.2.18L20,22a22.68,22.68,0,0,1,3.23-2.84,18.61,18.61,0,0,1,2.53-1.57l-.59.68c-.08.11-.12.17-.09.18l.18-.05a6.9,6.9,0,0,1,.7-.18Z"/><path class="cls-1" d="M14.71,26.14l.1,0,.75.25a3.42,3.42,0,0,1,1.21.84l0,.13a5.43,5.43,0,0,0-1.07,1l-.84,1c-.15.21-.27.3-.36.29s-.13-.12-.19-.3a4.17,4.17,0,0,1-.05-1.71,4.25,4.25,0,0,1,.43-1.49Z"/><path class="cls-7" d="M14.51,28.77a10.08,10.08,0,0,1,.1-1.34,6,6,0,0,1,.23-1.16,5.36,5.36,0,0,1,.75.28,3.37,3.37,0,0,1,1,.68,7.18,7.18,0,0,0-1.5,1.49c-.29.37-.46.55-.5.54s-.07-.2-.07-.49Z"/><path class="cls-2" d="M16.58,27.23a7.18,7.18,0,0,0-1.5,1.49l.35-1.21a.75.75,0,0,0-.7-.85l.11-.39a5.36,5.36,0,0,1,.75.28,3.37,3.37,0,0,1,1,.68Z"/><path class="cls-1" d="M28,26.34l.14.08a7.7,7.7,0,0,1-.05,2.46c-.13.62-.29,1-.48,1,0,0-.07,0-.11-.05l-.09-.16a10.92,10.92,0,0,0-.82-1.29,13.6,13.6,0,0,0-1.17-1.51l.15-.13.86-.31A2.89,2.89,0,0,1,28,26.34Z"/><path class="cls-7" d="M26.82,28.31a14.46,14.46,0,0,0-1.11-1.46,5.41,5.41,0,0,1,.91-.31l1.26,0L28,27.62A5.11,5.11,0,0,1,27.8,29c-.09.31-.18.48-.26.52h0a10.57,10.57,0,0,0-.72-1.21Z"/><path class="cls-2" d="M27.88,26.5,28,27.62a5.74,5.74,0,0,1-.09,1.08,6.64,6.64,0,0,0-.36-1.36,1.15,1.15,0,0,0-1-.76,2.79,2.79,0,0,1,1.41-.08Z"/><path class="cls-1" d="M14.18,26a3.11,3.11,0,0,1,1.43.34,5.93,5.93,0,0,1,1.61,1.26,6.07,6.07,0,0,0,1.68,1.32,2.57,2.57,0,0,0,1.93,0,10.6,10.6,0,0,0,1.49-.78l2.09-1a12.13,12.13,0,0,1,2.52-.82,2.41,2.41,0,0,1,1.73.13c.08,0,.11.08.08.13l-.13,0-.54-.08-1.16.11a14.32,14.32,0,0,0-2.5.77q-.72.32-2.07,1c-.69.4-1.18.67-1.48.8a2.38,2.38,0,0,1-1.72.14A4.23,4.23,0,0,1,17.47,28a7.17,7.17,0,0,0-1.85-1.4,3.76,3.76,0,0,0-1.41-.48c-.11,0-.18,0-.21-.11s0-.1.18-.09Z"/><path class="cls-1" d="M18.6,27.71c-.06-.05-.05-.1,0-.16s.13-.05.18,0l.17.29.11.29c0,.06,0,.08-.05.06l-.13-.11a1.22,1.22,0,0,0-.29-.37Z"/><path class="cls-1" d="M20.3,28.15a.68.68,0,0,1,.2-.31.64.64,0,0,1,.29-.19c.09,0,.13,0,.13.08l-.1.15a.83.83,0,0,0-.39.37c0,.06-.06.07-.1,0a.13.13,0,0,1,0-.13Z"/><path class="cls-1" d="M25.3,22.47l.16.76a4,4,0,0,1,0,1.36l.61-.05-1.2.52a15,15,0,0,1-2.08.66,2.76,2.76,0,0,1-1.59,0c-.12.09-.14,0,0-.12A7.68,7.68,0,0,1,22.58,24a9.66,9.66,0,0,1,2.52-1.72l.43-.17c.16,0,.23,0,.19,0l-.42.38Z"/><path class="cls-7" d="M25.07,22.56a5.6,5.6,0,0,1,.15,1.27,2.71,2.71,0,0,1-.06.8,9,9,0,0,1-2,.78,3.49,3.49,0,0,1-1.77.2,13.21,13.21,0,0,1,1.79-1.72,7.76,7.76,0,0,1,1.9-1.33Z"/><path class="cls-2" d="M25.07,22.56l.12.85a11.72,11.72,0,0,0-3.68,2.23l-.13,0a13.21,13.21,0,0,1,1.79-1.72,7.76,7.76,0,0,1,1.9-1.33Z"/><path class="cls-1" d="M22.11,24.73l.13-.18c.09-.11.16-.14.2-.11a1,1,0,0,1,0,.47c-.05.26-.11.39-.16.39s-.07-.06-.1-.19l-.06-.38Z"/><path class="cls-1" d="M16.15,22.79a1.24,1.24,0,0,1-.25-.5c0-.16,0-.2.09-.12l.87.91A22.75,22.75,0,0,1,18.8,25.5c.09.16.08.21,0,.12l-1.21-.06a5,5,0,0,1-1.79-.85c-.16-.13-.23-.2-.19-.23s.15,0,.35.09a4.2,4.2,0,0,1,0-1.12,1.52,1.52,0,0,1,.22-.66Z"/><path class="cls-7" d="M16.37,23l1,1.17,1.18,1.37a3.21,3.21,0,0,1-1.15-.15,3.06,3.06,0,0,1-1.32-.69l0-.7a1.64,1.64,0,0,1,.27-1Z"/><path class="cls-2" d="M16.18,23.39a.89.89,0,0,1,.19-.44l1,1.17,1.18,1.37h-.17a11.57,11.57,0,0,0-2.24-2.1Z"/><path class="cls-1" d="M18.17,24.78c0,.36-.08.53-.14.51s-.09-.12-.15-.34a1.22,1.22,0,0,1-.05-.46l.34.29Z"/></g></g></svg>