<svg xmlns="http://www.w3.org/2000/svg" viewBox="0 0 41.71 70.14"><defs><style>.cls-1{fill:#5dc1cf;}.cls-1,.cls-2,.cls-3,.cls-4,.cls-5,.cls-6,.cls-7,.cls-8,.cls-9{fill-rule:evenodd;}.cls-2{fill:#50a8b4;}.cls-3{fill:#f9be00;}.cls-4{fill:#d7a400;}.cls-5{fill:#fff3c2;}.cls-6{fill:#dbd2a9;}.cls-7{fill:#dbdcdc;}.cls-8{fill:#fff;}.cls-9{fill:#0d131a;}</style></defs><title>Asset 77@</title><g id="Layer_2" data-name="Layer 2"><g id="Layer_1-2" data-name="Layer 1"><path class="cls-1" d="M7.41,13.56A5.73,5.73,0,0,1,8.6,14.91c1,1.24,1.74,2.2,2.34,2.87q3.69,4.09,6.49,3.73c1.91-.25,2.23.86.94,3.32a23.08,23.08,0,0,1-2.49,3.77c-1.29-2.09-2.89-3-4.79-2.83a5.33,5.33,0,0,0-2.18.76,6,6,0,0,0-1.56,1.35c-1.24-.75-2.52-.45-3.84.88A10.63,10.63,0,0,0,1.38,32a14.9,14.9,0,0,1-.48-2.4,13.13,13.13,0,0,1,.15-4.91,30.46,30.46,0,0,1,2.46-6.46q2-4,3.9-4.65Z"/><path class="cls-2" d="M7.41,13.56A5.73,5.73,0,0,1,8.6,14.91c1,1.24,1.74,2.2,2.34,2.87q3.69,4.09,6.49,3.73c1.91-.25,2.23.86.94,3.32a23.08,23.08,0,0,1-2.49,3.77A7.43,7.43,0,0,0,14.63,27a14.89,14.89,0,0,0-3.48-6.64,22.07,22.07,0,0,0-2.1-2.24q-.93-.86-1.08-.75-1.25.8-1.87,5.21c-.1.69-.2,1.53-.31,2.52-.08.57-.15.67-.22.29a15.34,15.34,0,0,1,.2-5.62L6.15,18c.08-.41.07-.57,0-.49A12.92,12.92,0,0,0,3.5,21.45,25.3,25.3,0,0,0,1.41,26.6q-.12.27-.24.21c-.09,0-.15-.16-.2-.37a3.74,3.74,0,0,1,.08-1.77,30.46,30.46,0,0,1,2.46-6.46q2-4,3.9-4.65Z"/><path class="cls-3" d="M28.3,61.27a21.07,21.07,0,0,0,2.83,5,17.5,17.5,0,0,0,3.24,3.34c.18.15.11.24-.23.29l-1.41-.08a20.23,20.23,0,0,1-9.22-4.17,23.32,23.32,0,0,1-5.69-6.83A28.16,28.16,0,0,1,15,51.77a15.35,15.35,0,0,1-.59-4.91l13.24.07a21.94,21.94,0,0,0,.65,14.34Z"/><path class="cls-4" d="M27.65,46.93a24.07,24.07,0,0,0-.8,4.42,13.72,13.72,0,0,0-5.22,8.51,11.64,11.64,0,0,0-.1,3,8.43,8.43,0,0,0,.19,1.2,25.73,25.73,0,0,1-6-9.8,25.18,25.18,0,0,1-1.14-4.39,12.11,12.11,0,0,1-.2-3l13.24.07Z"/><path class="cls-5" d="M28.3,61.27a21.07,21.07,0,0,0,2.83,5,17.5,17.5,0,0,0,3.24,3.34c.19.15.12.26-.24.32a3.38,3.38,0,0,1-1.4-.11,16.81,16.81,0,0,1-7.54-4.25,22.07,22.07,0,0,1-4.7-6.72,23.47,23.47,0,0,1-2.06-7.05,10.23,10.23,0,0,1,.42-5.23l8.8.33a21.94,21.94,0,0,0,.65,14.34Z"/><path class="cls-6" d="M27.65,46.93a23.8,23.8,0,0,0-.78,4.18,13.63,13.63,0,0,0-5.33,9.61A26.85,26.85,0,0,1,18.45,53a10.39,10.39,0,0,1,.4-6.35l8.8.33Z"/><path class="cls-7" d="M16.46,52.69c.08-.15.34,0,.77.43a8.37,8.37,0,0,1,.62.7l-.18.88a2,2,0,0,1-.56,1.1,2.45,2.45,0,0,1-.64-1.52,3,3,0,0,1,0-1.59Z"/><path class="cls-3" d="M22.6,48.49a4,4,0,0,1,.5,2.21,5.79,5.79,0,0,1-.43,2.1,2.09,2.09,0,0,1-.74.83,4.31,4.31,0,0,1-1.26.59A3.4,3.4,0,0,1,17.82,54a4.54,4.54,0,0,1-1.91-3,6.88,6.88,0,0,1-.14-2.75l6.83.23Z"/><path class="cls-4" d="M23.09,50.18a8.21,8.21,0,0,0-3.38,1,8.08,8.08,0,0,0-2.64,2.22,5.31,5.31,0,0,1-1.25-2.79,6.72,6.72,0,0,1-.05-2.31l6.83.23a3.84,3.84,0,0,1,.49,1.69Z"/><path class="cls-8" d="M17.89,53.88a1.22,1.22,0,0,1,1.21-.43,1.39,1.39,0,0,1,1.15.59,6,6,0,0,1-.52,1.69c-.31.67-.55,1-.71,1s-.41-.38-.69-1.08a5.05,5.05,0,0,1-.44-1.76Z"/><path class="cls-7" d="M18.88,53.45c-.21.15-.31.6-.28,1.35a13.89,13.89,0,0,0,.21,1.77,8.4,8.4,0,0,1-.59-1.32,4.42,4.42,0,0,1-.33-1.37.84.84,0,0,1,.41-.32,1.5,1.5,0,0,1,.58-.11Z"/><path class="cls-8" d="M20.46,54a2.31,2.31,0,0,1,.77-.9c.47-.35.84-.39,1.13-.12a7,7,0,0,1-.13,2.18c-.15.74-.33,1.1-.55,1.06s-.5-.36-.84-1-.46-1-.38-1.24Z"/><path class="cls-7" d="M20.46,54a2.08,2.08,0,0,1,.49-.65,6.88,6.88,0,0,0,.69,2.86c-.23-.08-.51-.42-.83-1s-.43-1-.35-1.19Z"/><path class="cls-3" d="M8.91,15.84A9.9,9.9,0,0,0,7.79,14.3Q7,13.63,5.23,16.41a42.92,42.92,0,0,0-2.87,5.68,17.66,17.66,0,0,0-1.19,6.52,13.75,13.75,0,0,0,.58,5.11.68.68,0,0,1,.07.38c0,.07-.08.07-.16,0A2.22,2.22,0,0,1,1,33.05,15,15,0,0,1,.38,25.7a21.32,21.32,0,0,1,3.44-8.9,25,25,0,0,1,2.19-3A5.8,5.8,0,0,1,7.45,12.5a1.74,1.74,0,0,1,1.09-.26c.22.07.31.28.29.64A2.6,2.6,0,0,0,9,13.94a17,17,0,0,0,1.29,2.18,14,14,0,0,0,3.33,3.43c1.57,1.17,2.78,1.59,3.63,1.27l.52.58c.26.38.18.55-.25.52a9.91,9.91,0,0,1-6.81-3.64,22.3,22.3,0,0,1-1.79-2.44Z"/><path class="cls-4" d="M7.45,12.5a2.79,2.79,0,0,1,.69-.25,1.78,1.78,0,0,0-.79.67,3.64,3.64,0,0,1-.78,1A19.36,19.36,0,0,0,2,21.31,20.27,20.27,0,0,0,.57,27.92a17.83,17.83,0,0,0,.19,3.13,7.1,7.1,0,0,0,1.05,2.88c0,.12,0,.19,0,.21s-.12,0-.21-.09a3.22,3.22,0,0,1-.7-1.22A15.51,15.51,0,0,1,.38,25.7a21.32,21.32,0,0,1,3.44-8.9,25,25,0,0,1,2.19-3A5.8,5.8,0,0,1,7.45,12.5Z"/><path class="cls-4" d="M8.91,15.84A9.9,9.9,0,0,0,7.79,14.3l-.15-.08a.63.63,0,0,1,.41-.07.81.81,0,0,1,.59.47,20.6,20.6,0,0,0,2.16,3.05q2,2.46,2.79,1.86a8,8,0,0,0,2,1.15,2.33,2.33,0,0,0,1.67.14l.52.58c.26.38.18.55-.25.52a9.91,9.91,0,0,1-6.81-3.64,22.3,22.3,0,0,1-1.79-2.44Z"/><path class="cls-1" d="M28.24,6.9a9.33,9.33,0,0,1,4.86,3.28A38.54,38.54,0,0,1,36.52,15a10.76,10.76,0,0,1,1.42,4.55A16.35,16.35,0,0,1,38.06,22c-1.61-1.75-2.79-2.58-3.55-2.52a1.39,1.39,0,0,0-.95.62,8.84,8.84,0,0,0-.8,1.42,3,3,0,0,0-3.65,0,4.08,4.08,0,0,0-1.1,1.2,2.3,2.3,0,0,0-.4,1.17l-2.8-2.19L27,15.88c.2-.85.4-1.87.6-3a41.17,41.17,0,0,0,.64-5.94Z"/><path class="cls-2" d="M28.24,6.9a9.33,9.33,0,0,1,4.86,3.28A38.54,38.54,0,0,1,36.52,15a9.06,9.06,0,0,1,1.16,3,40,40,0,0,0-4.3-5.6Q30.5,9.16,30.05,10a6.78,6.78,0,0,0,.82,2.12,14.17,14.17,0,0,1,1.2,3.23,18.62,18.62,0,0,0-1.49-3c-.64-1.06-1-1.46-1.24-1.19q-.89,1.29-.65,10.82a4.06,4.06,0,0,0-.8,1.05,2.2,2.2,0,0,0-.28,1l-2.8-2.19L27,15.88c.2-.85.4-1.87.6-3a41.17,41.17,0,0,0,.64-5.94Z"/><path class="cls-3" d="M28,6.32a4.63,4.63,0,0,1,2,.79,16.93,16.93,0,0,1,3.4,2.63,17.12,17.12,0,0,1,3.51,5.06,15.49,15.49,0,0,1,1.6,6.91,6.07,6.07,0,0,1-.08,1.17c0,.11-.12,0-.21-.3l-.86-3.32a21.27,21.27,0,0,0-3.61-7.53A11,11,0,0,0,29.18,8q-.45-.18-.57.54l-.13,2A9.76,9.76,0,0,1,26.86,16a4,4,0,0,1-.63.69l-.22.13a11.38,11.38,0,0,0,1.3-4.5,14.71,14.71,0,0,0,.13-4.2,3.73,3.73,0,0,1-.08-1.47c.07-.2.26-.31.59-.34Z"/><path class="cls-4" d="M29.18,8,29,8h-.22a.59.59,0,0,1,0-.19c0-.07.12-.13.29-.17a1.74,1.74,0,0,1,.79.22,9.47,9.47,0,0,1,1.5.89,13.69,13.69,0,0,1,3.78,4.22,26.65,26.65,0,0,1,2.31,4.77,9.75,9.75,0,0,1,.54,3.95l-.6-2.4a21.27,21.27,0,0,0-3.61-7.53A11,11,0,0,0,29.18,8Z"/><path class="cls-4" d="M28.11,13.3A7.52,7.52,0,0,1,26.86,16a4,4,0,0,1-.63.69l-.22.13a7.55,7.55,0,0,0,.91-2.37,20.51,20.51,0,0,0,.49-3q.15.84.51.36a4.53,4.53,0,0,0,.56-1.2,14.2,14.2,0,0,1-.37,2.67Z"/><path class="cls-3" d="M31.61,44.79c1.6-.76,2.78-.95,3.55-.56a16,16,0,0,1,3.39,2.22q1.8,1.61.39,2.22a18.33,18.33,0,0,1-3.19,1.16l-.81,0a2.51,2.51,0,0,1-.71-.4l-2.64-1.77A15.31,15.31,0,0,1,29.45,46l.64-.42a15.47,15.47,0,0,1,1.52-.83Z"/><path class="cls-4" d="M29.45,46l.64-.42a15.47,15.47,0,0,1,1.52-.83c1.6-.76,2.78-.95,3.55-.56.41.21.83.44,1.25.7a3.3,3.3,0,0,0-1.79,1,5.22,5.22,0,0,0-1.18,2.88L31,47.23A10.23,10.23,0,0,1,29.45,46Z"/><path class="cls-3" d="M30.54,39.53q.62-2.14,1.53-4.74l.8-2.16a10.38,10.38,0,0,1,3.37,2.56,6.3,6.3,0,0,1,1.47,4.71A6.17,6.17,0,0,1,35,44.7a9.57,9.57,0,0,1-4.63,1.54c-1.19.11-1.13-2.12.18-6.71Z"/><path class="cls-4" d="M30.48,39.62q.63-2.17,1.58-4.8l.81-2.19c.36.18.72.38,1.07.6-1.43,4.09-1.78,7.08-1,9a2.79,2.79,0,0,0,1.32,1.57,2.37,2.37,0,0,0,1.62.19,8.06,8.06,0,0,1-2.71,1.71,10.49,10.49,0,0,1-2.91.71q-1.8.16.24-6.78Z"/><path class="cls-8" d="M38.47,48.32a3.19,3.19,0,0,1,.36-.37.84.84,0,0,1,.73-.08,1.87,1.87,0,0,1,.61.8c.22.43.29.72.24.85a1.21,1.21,0,0,1-.61-.13,4,4,0,0,1-.72-.35l-.61-.72Z"/><path class="cls-7" d="M38.47,48.32l.22-.25a11.3,11.3,0,0,1,1.07.84,3.89,3.89,0,0,1,.65.61,1.21,1.21,0,0,1-.61-.13,4,4,0,0,1-.72-.35l-.61-.72Z"/><path class="cls-8" d="M38.38,50.2a6.91,6.91,0,0,1-1-.58l-.62-.89a1.32,1.32,0,0,1,.7-.63,1.2,1.2,0,0,1,1.14.29,2.78,2.78,0,0,1,.67,1.18c.21.61.27.93.15,1a2.3,2.3,0,0,1-1.07-.34Z"/><path class="cls-7" d="M39.49,50.47l0,.07a2.3,2.3,0,0,1-1.07-.34,6.91,6.91,0,0,1-1-.58l-.62-.89a1.52,1.52,0,0,1,.42-.48,8.8,8.8,0,0,0,2.28,2.22Z"/><path class="cls-8" d="M35,49.73a2.51,2.51,0,0,1,.45-.8,1.4,1.4,0,0,1,1.09-.3c.31,0,.63.4.95,1.12s.43,1.07.37,1.2a5,5,0,0,1-1.51-.47A3.66,3.66,0,0,1,35,49.73Z"/><path class="cls-7" d="M37.89,50.91v0a5,5,0,0,1-1.51-.47A3.66,3.66,0,0,1,35,49.73l.18-.41a1.41,1.41,0,0,1,.23-.35A6.46,6.46,0,0,0,36.59,50l1.3.87Z"/><path class="cls-8" d="M38.56,14.51a4.11,4.11,0,0,1,1.15.2c.59.15.87.27.84.35a3.63,3.63,0,0,1-1,.71l-.95-1.26Z"/><polygon class="cls-7" points="40.51 15.12 39.9 15.53 39.51 15.77 39.04 15.15 39.77 15.14 40.51 15.12 40.51 15.12"/><path class="cls-8" d="M41.6,17.27a5,5,0,0,1-1.74.34L39.73,16a4.21,4.21,0,0,1,1.33.71c.4.31.58.5.54.58Z"/><path class="cls-7" d="M39.8,16.87a5.39,5.39,0,0,0,1.3.36l.5,0a5,5,0,0,1-1.74.34l-.06-.74Z"/><path class="cls-8" d="M39.79,17.72a6.35,6.35,0,0,1,.93,1.43l-1,0-1-.17,1.12-1.23Z"/><path class="cls-7" d="M39.39,18.16a3.63,3.63,0,0,0,1,.81,2,2,0,0,0,.38.18l-1,0-1-.17.72-.79Z"/><path class="cls-3" d="M32.33,14a6.43,6.43,0,0,1,3.3-.56q4.15.55,4.37,3.31a2.12,2.12,0,0,1-1.4,2.4,4.3,4.3,0,0,1-2.77,0,5.37,5.37,0,0,0-2-.08,12,12,0,0,0-2.63.59c-2.21.75-3.55,1.81-4,3.18a3.71,3.71,0,0,1-.74-.35,2.76,2.76,0,0,1-1.11-1.15c-.66-1.4.43-3.13,3.29-5.18A19,19,0,0,1,32.33,14Z"/><path class="cls-4" d="M27.2,22.77a3.42,3.42,0,0,1-.73-.35,2.73,2.73,0,0,1-1.12-1.15q-1-2.1,3.26-5.16a2.39,2.39,0,0,0,.91,1.81,3.52,3.52,0,0,0,2.59-.1,7.25,7.25,0,0,1,2.55-.25l2.37.26a5.36,5.36,0,0,0,1.88,0A1.55,1.55,0,0,0,40,16.7a2,2,0,0,1-1.35,2.38,4.38,4.38,0,0,1-2.82,0,5.37,5.37,0,0,0-2-.08,12,12,0,0,0-2.63.59c-2.21.75-3.55,1.81-4,3.18Z"/><path class="cls-7" d="M5.26,29.19l.89,2.21-.55.28c-.38.16-.61.22-.68.17s-.07-.45,0-1.13a11.25,11.25,0,0,1,.31-1.53Z"/><path class="cls-8" d="M6.25,31.61l1.64,1q-1,1.2-1.23,1.2c-.11,0-.22-.28-.34-.83a3.61,3.61,0,0,1-.07-1.35Z"/><path class="cls-7" d="M7.25,32a8.66,8.66,0,0,0-.38.83,2.05,2.05,0,0,0-.11.89l-.1,0c-.11,0-.22-.28-.34-.83a3.61,3.61,0,0,1-.07-1.35l1,.42Z"/><path class="cls-8" d="M9.16,34.15q-.21.12-.63-.6a3.13,3.13,0,0,1-.44-1l1.78-.68L9.63,33c-.18.73-.34,1.13-.47,1.2Z"/><path class="cls-7" d="M9.19,32.14a2,2,0,0,0-.18,1,4.16,4.16,0,0,0,.21,1l-.06,0q-.21.12-.63-.6a3.13,3.13,0,0,1-.44-1l1.1-.42Z"/><path class="cls-3" d="M26.09,11.65l.11.14a2.34,2.34,0,0,1,.27.5A8.42,8.42,0,0,1,27,14.82a3.52,3.52,0,0,1,1.31,1.06,3,3,0,0,1,.63,1.5,3.63,3.63,0,0,1-.74,3.27,3.52,3.52,0,0,1-.8.69l-.4.2a13.26,13.26,0,0,0,1,3.59,10.53,10.53,0,0,0,1.45,2.48l1.23,1.47a15.45,15.45,0,0,1,1.68,2.71A10.73,10.73,0,0,1,33,40.1a13,13,0,0,1-3.84,6.25,11.46,11.46,0,0,1-6.36,2.14,3.78,3.78,0,0,1-1.29.72,6,6,0,0,1-2.3.41C17,49.57,15,48.36,13.39,46A8.75,8.75,0,0,1,12,41.71a9.12,9.12,0,0,1,1-5.4c.2-1.34.54-3,1-4.85l1.3-4.88q.74-2.8,1-4.56a14.49,14.49,0,0,0,.2-3.93l-.34-2.81a12.79,12.79,0,0,1-.06-2.42,5,5,0,0,1,2.29-3.78,5.68,5.68,0,0,1,2.72-1,4.51,4.51,0,0,1,2.49.54,5.84,5.84,0,0,1,1.54,1.28,3.15,3.15,0,0,1,.92,1.74Z"/><path class="cls-4" d="M24.73,21.43A7.45,7.45,0,0,0,27,20.86a5.67,5.67,0,0,0,1.83-1.21,2.92,2.92,0,0,1-1,1.32l-.79.57a13.3,13.3,0,0,0,1.22,4,2.53,2.53,0,0,1-2.2.57,8.93,8.93,0,0,1-2.88-.7,8.39,8.39,0,0,1-2.46-1.53,5.84,5.84,0,0,1-1.57-2.19,4.37,4.37,0,0,1-.2-2.65,2.74,2.74,0,0,0,.64.88,1.83,1.83,0,0,0,1.42.5c.05,0,0-.06-.09-.32a3.16,3.16,0,0,0,1.63,1.15,5.53,5.53,0,0,0,2.19.21Z"/><path class="cls-4" d="M25.26,44.05a8.28,8.28,0,0,0,3-.66,37.45,37.45,0,0,0,4.12-1.54,10.7,10.7,0,0,1-3.71,4.89,12.07,12.07,0,0,1-5.83,1.75,4.33,4.33,0,0,1-1.3.79,5.77,5.77,0,0,1-2.27.44Q16,49.69,13.39,46A8.75,8.75,0,0,1,12,41.71a9.12,9.12,0,0,1,1-5.4,67.8,67.8,0,0,1,1.62-7.12q1.34-4.95,1.66-6.85a3.62,3.62,0,0,0,.36,1.43,3.47,3.47,0,0,1,.26,1.75,21.52,21.52,0,0,0-1.8,4.59,17.25,17.25,0,0,0-.68,4.4c0,.16.07.21.22.15l.43-.25q.26-.16.3-.09c.05.08,0,.31-.14.69a9.7,9.7,0,0,0-.57,6.5,5.85,5.85,0,0,0,3,3.51,7.19,7.19,0,0,0,4.3.76,4.54,4.54,0,0,0,3.31-1.73Z"/><path class="cls-4" d="M17.78,10.7a1.13,1.13,0,0,0-.11.7.87.87,0,0,0,.24.51c-.72.09-1.1,1.07-1.15,2.93,0,.6.07,2.33.25,5.21a.58.58,0,0,1-.21.5c-.16.13-.24.09-.25-.11l0-.9a7.19,7.19,0,0,0-.06-1.48l-.34-1.59a13,13,0,0,1-.3-2.53q0-3.49,2.54-4.86a8.18,8.18,0,0,1,2.5-.9,4.31,4.31,0,0,1,2.27.24,5.69,5.69,0,0,0-2,0A1.49,1.49,0,0,0,20,9.52a2.8,2.8,0,0,0-2.21,1.18Z"/><path class="cls-5" d="M25.14,22.19A5.77,5.77,0,0,0,27,21.54a13.26,13.26,0,0,0,1,3.59,10.53,10.53,0,0,0,1.45,2.48l1.23,1.47a15.45,15.45,0,0,1,1.68,2.71A10.73,10.73,0,0,1,33,40.1a13.26,13.26,0,0,1-3.89,6.32,10.72,10.72,0,0,1-6.31,2.07q3.7-3,1.81-7.75a13.37,13.37,0,0,0-1.9-3.23,9.32,9.32,0,0,0-1.67-1.76c-1-1.1-1.56-3.27-1.66-6.51a32.31,32.31,0,0,1,.8-8.36l.73.38a.65.65,0,0,0,.63,0,3.86,3.86,0,0,0,3.56,1Z"/><path class="cls-6" d="M25.14,22.19A5.77,5.77,0,0,0,27,21.54a12.63,12.63,0,0,0,.75,2.86,14.1,14.1,0,0,0,1.12,2.34,3.64,3.64,0,0,1-1.91.53,6.59,6.59,0,0,1-2.41-.42,9.32,9.32,0,0,1-4.7-3.94L20,21.86c0-.32.11-.65.19-1l.73.38a.65.65,0,0,0,.63,0,3.86,3.86,0,0,0,3.56,1Z"/><path class="cls-6" d="M25.2,42.76c.11.41.5.66,1.16.76a5.68,5.68,0,0,0,2.22-.17,8.62,8.62,0,0,0,2.49-1.06A5.64,5.64,0,0,0,33,40.41a12.42,12.42,0,0,1-3.85,6.16,11.2,11.2,0,0,1-6.29,1.92,5.91,5.91,0,0,0,2.36-5.73Z"/><path class="cls-3" d="M16.76,20.52c.22-.3.49-.22.81.25a4.65,4.65,0,0,1,.68,1.77,4,4,0,0,1-.06,2,1.44,1.44,0,0,1-1.39,1,5.77,5.77,0,0,0-3.86,2.19,21.08,21.08,0,0,0-2.17,3l-.6.95a3,3,0,0,1-.75.79c-.69.45-1.57.35-2.65-.31a3.06,3.06,0,0,1-1.56-2.64,5.8,5.8,0,0,1,.56-2.75,7.48,7.48,0,0,1,3.7-3.36,15.33,15.33,0,0,1,3.85-1.34,16.59,16.59,0,0,0,2-.48,3.34,3.34,0,0,0,1.47-1.16Z"/><path class="cls-4" d="M17.07,25.57l-.27,0a5.77,5.77,0,0,0-3.86,2.19,21.08,21.08,0,0,0-2.17,3l-.6.95a3,3,0,0,1-.75.79c-.69.45-1.57.35-2.65-.31a3,3,0,0,1-1.41-1.76,4.39,4.39,0,0,1-.07-2.09,3.54,3.54,0,0,0,1.54,2.53A1.56,1.56,0,0,0,9,30.39q5.1-6.26,8.1-4.82Z"/><path class="cls-5" d="M15.43,10.62a6.13,6.13,0,0,1,2.71.56.36.36,0,0,1,.22.23.4.4,0,0,1-.23.53h-.31a5.46,5.46,0,0,0-2.38-.49,10.07,10.07,0,0,0-2.06.4l-1,.34a6.36,6.36,0,0,1-1.56.2A5.22,5.22,0,0,1,7,10.59a9.72,9.72,0,0,1-2.19-3.3.42.42,0,0,1,0-.31A.38.38,0,0,1,5,6.76h.31A.34.34,0,0,1,5.54,7a9.29,9.29,0,0,0,2.12,3.13,4,4,0,0,0,3.05,1.46A10.54,10.54,0,0,0,12,11.36l1.14-.3a11,11,0,0,1,2.27-.44Z"/><path class="cls-6" d="M5.1,7.18a13.21,13.21,0,0,0,3.11,4.09,6.26,6.26,0,0,0,3,1.1l-.42,0A5.22,5.22,0,0,1,7,10.59a9.72,9.72,0,0,1-2.19-3.3.42.42,0,0,1,0-.31A.38.38,0,0,1,5,6.76v.11a.85.85,0,0,0,.09.31Z"/><path class="cls-6" d="M16.85,11.19c.37.07.68.15,1,.23s.58.22.55.3a.41.41,0,0,1-.23.22h-.31a5.53,5.53,0,0,0-2.1-.5A6.68,6.68,0,0,0,14,11.7c.17-.27.65-.44,1.43-.52a5.4,5.4,0,0,1,1.47,0Z"/><path class="cls-8" d="M21.05,17.19a3.25,3.25,0,0,1-.83,0,2.13,2.13,0,0,1-1.37-.52,4.13,4.13,0,0,1-.36-2c.06-.53.3-.84.71-.92s.85.32,1.32,1.21a3.55,3.55,0,0,1,.53,2.2Z"/><path class="cls-8" d="M26.64,15.14a5,5,0,0,1-.89-2c-.22-.94-.18-1.45.11-1.54s.39.25.65.9a8.38,8.38,0,0,1,.54,2.32.74.74,0,0,1-.41.35Z"/><path class="cls-3" d="M18.71,9.36a4.73,4.73,0,0,1,.13-1.19c.12-.59.25-.91.38-1s.42,0,.83.33a4.54,4.54,0,0,1,.93.83.77.77,0,0,1-.07.57,1.12,1.12,0,0,1-.47.47,1.71,1.71,0,0,1-1.73-.05Z"/><path class="cls-4" d="M18.71,9.36a4.73,4.73,0,0,1,.13-1.19c.12-.59.25-.91.38-1h.14a4.77,4.77,0,0,0,.24,1.38c.2.58.45.88.75.88a1.54,1.54,0,0,1-.74.15,2.18,2.18,0,0,1-.9-.25Z"/><path class="cls-9" d="M2.64,30a13.87,13.87,0,0,0-1.26,2.26l0-.31a15.29,15.29,0,0,1,1.2-2.26,5.37,5.37,0,0,1,2.65-2.32l.39-.08-.1.37-.18,0A5.61,5.61,0,0,0,2.64,30Z"/><path class="cls-9" d="M14.33,26.61a5.71,5.71,0,0,1,.75.71l-.1.27a3.8,3.8,0,0,0-.45-.44l-.48-.38.15-.08.13-.08Z"/><path class="cls-9" d="M27.31,47.63l.51-.32a22.06,22.06,0,0,0,.79,14.14,21,21,0,0,0,2.76,4.89,17.09,17.09,0,0,0,3.08,3.19c.3.23.41.39.34.48s-.25.12-.6.13l-1,0-.57,0A20.66,20.66,0,0,1,23,65.53a23.5,23.5,0,0,1-5.42-6.59,27.06,27.06,0,0,1-2.67-6.78,17.65,17.65,0,0,1-.64-5l.28.26a18.06,18.06,0,0,0,.76,4.91,28.18,28.18,0,0,0,2.65,6.49,23.57,23.57,0,0,0,5.3,6.49,20.27,20.27,0,0,0,9.52,4.44,4.42,4.42,0,0,0,1.39.08l.1,0-.07-.08a19.53,19.53,0,0,1-5-6.13,21.45,21.45,0,0,1-2.58-10.28,23.9,23.9,0,0,1,.69-5.64Z"/><path class="cls-9" d="M32.82,69.75l0,.2a15.39,15.39,0,0,1-6-2.93,21.15,21.15,0,0,1-4-4.09,22.76,22.76,0,0,1-2.3-3.77,18,18,0,0,1-1.09-2.73l.13-.28a16.07,16.07,0,0,0,1.24,3,25.23,25.23,0,0,0,2.64,4.11c2.76,3.5,5.9,5.64,9.41,6.45Z"/><path class="cls-9" d="M27,49.3h0v.21a4.49,4.49,0,0,1-1.31.8,6.58,6.58,0,0,1-2.6.33v-.16A5.93,5.93,0,0,0,27,49.3Z"/><path class="cls-9" d="M24.82,53.47a6,6,0,0,0,2-1.07v.2a7,7,0,0,1-4.36,1.54V54a10.36,10.36,0,0,0,2.4-.51Z"/><path class="cls-9" d="M24.41,57.19a6.32,6.32,0,0,0,2.48-1.06l.11.12a6.34,6.34,0,0,1-2.54,1.17,10.06,10.06,0,0,1-4.44.26l-.09-.15a11.55,11.55,0,0,0,4.48-.34Z"/><path class="cls-9" d="M25.68,60.4a3.48,3.48,0,0,0,1.86-1.16l0,.2a3.45,3.45,0,0,1-1.92,1.21,9.31,9.31,0,0,1-4.1.24l0-.16a8.92,8.92,0,0,0,4.1-.33Z"/><path class="cls-9" d="M28.74,62.42l.08.13c-.18.44-.75.81-1.73,1.11a7.86,7.86,0,0,1-3.4.29l0-.15A7.46,7.46,0,0,0,27,63.46a3,3,0,0,0,1.74-1Z"/><path class="cls-9" d="M26.1,66.37,26,66.23a5.9,5.9,0,0,0,2.77-.36,2.16,2.16,0,0,0,1.3-1.06l.13.11A2.14,2.14,0,0,1,29.07,66a5.1,5.1,0,0,1-3,.35Z"/><path class="cls-9" d="M28.47,68a4.43,4.43,0,0,0,2-.27,1.69,1.69,0,0,0,1.08-.88l.11.12a1.78,1.78,0,0,1-1.05,1,4.39,4.39,0,0,1-2,.2L28.47,68Z"/><path class="cls-9" d="M17.72,54l.19.1-.16.89a2.11,2.11,0,0,1-.48,1q-.16.21-.39-.06a3.6,3.6,0,0,1-.54-1.64,3.2,3.2,0,0,1,0-1.6h0s.05,0,.1,0l.1.09,0,1.21a2.89,2.89,0,0,0,.52,1.7c.07.09.18-.11.33-.57A8.51,8.51,0,0,0,17.72,54Z"/><path class="cls-9" d="M22.72,48.42a4.56,4.56,0,0,1,.56,2.38,5.94,5.94,0,0,1-.42,2.2,1.89,1.89,0,0,1-.47.69V53l.15-.26a5.53,5.53,0,0,0,.43-2,3.84,3.84,0,0,0-.49-2.16l.25-.15Z"/><path class="cls-9" d="M20.47,54.12a.52.52,0,0,0,.11.27l-.48.1.09-.31.28-.06Z"/><path class="cls-9" d="M15.78,51.27a8.32,8.32,0,0,1-.18-2.81.19.19,0,0,0,.14.07.29.29,0,0,1,.14,0,7.59,7.59,0,0,0,.3,2.75,4.23,4.23,0,0,0,1.71,2.55h0l0,.34-.18-.1a4.09,4.09,0,0,1-2-2.84Z"/><path class="cls-9" d="M18.39,53.64a.8.8,0,0,0-.4.28,5.3,5.3,0,0,0,.45,1.71c.26.65.46,1,.58,1s.32-.31.61-.93a5.16,5.16,0,0,0,.5-1.61,1,1,0,0,0-.46-.37,2,2,0,0,0-.71-.16,1.45,1.45,0,0,0-.57.1Zm-.59.19a1.27,1.27,0,0,1,.46-.4A1.57,1.57,0,0,1,19,53.3a1.83,1.83,0,0,1,.83.22,1.18,1.18,0,0,1,.55.47l0,0v0a5.74,5.74,0,0,1-.43,1.6,3.44,3.44,0,0,1-.68,1.25A.43.43,0,0,1,19,57c-.22,0-.48-.43-.78-1.22a5.75,5.75,0,0,1-.46-1.87v0l0,0Z"/><path class="cls-9" d="M22.26,53.05a.49.49,0,0,0-.45-.1,1.62,1.62,0,0,0-.79.49,2.17,2.17,0,0,0-.47.61.82.82,0,0,0,.06.45,5.6,5.6,0,0,0,.35.78,4.39,4.39,0,0,0,.43.62q.2.23.3.24a.1.1,0,0,0,.08,0,1.85,1.85,0,0,0,.36-.91,7.78,7.78,0,0,0,.16-1.56l0-.58Zm-.48-.37a.71.71,0,0,1,.65.24l0,0,0,.17a7.55,7.55,0,0,1-.08,2A2.43,2.43,0,0,1,22,56.44a.31.31,0,0,1-.25.1c-.21,0-.52-.4-.93-1.09a4.61,4.61,0,0,1-.36-.8,1,1,0,0,1-.08-.66,2.34,2.34,0,0,1,.53-.71,2,2,0,0,1,.92-.6Z"/><path class="cls-9" d="M7.71,14.4a.42.42,0,0,0-.39-.08q-.86.19-2.34,2.73a49.31,49.31,0,0,0-2.5,5.08A17.4,17.4,0,0,0,1.3,28.61a14.06,14.06,0,0,0,.56,5.07,2.44,2.44,0,0,1,.14.44c0,.16,0,.27,0,.3s-.28,0-.54-.29a4.9,4.9,0,0,1-1.1-2.36,18,18,0,0,1-.14-6.15,17.54,17.54,0,0,1,1.42-5,29.53,29.53,0,0,1,2.1-3.88,26,26,0,0,1,2.22-3,6.3,6.3,0,0,1,1.46-1.35q1-.45,1.32-.21a.75.75,0,0,1,.24.71A2.33,2.33,0,0,0,9.18,14a14.79,14.79,0,0,0,1.28,2.07,15.86,15.86,0,0,0,2.84,3,6.76,6.76,0,0,0,3.14,1.7l-.18.22a7.64,7.64,0,0,1-3.37-1.88,13.79,13.79,0,0,1-2.71-2.94C9.46,15.1,9,14.38,8.85,14A2.27,2.27,0,0,1,8.65,13q0-.42-.12-.51c-.16-.11-.5,0-1,.21A5.68,5.68,0,0,0,6.14,14,24,24,0,0,0,4,16.86,21,21,0,0,0,.5,25.72a25.72,25.72,0,0,0-.17,2.8,13.19,13.19,0,0,0,.5,3.95,4.89,4.89,0,0,0,.7,1.41c.12.16.18.2.18.13a.6.6,0,0,0-.08-.24,9,9,0,0,1-.42-1.9A20.25,20.25,0,0,1,1,29.09a23.52,23.52,0,0,1,.27-3.62A14.56,14.56,0,0,1,2.25,22c.75-1.75,1.47-3.25,2.17-4.52Q6.19,14.28,7.25,14a.7.7,0,0,1,.62.18,2.7,2.7,0,0,1,.47.56l.57.85a21.12,21.12,0,0,0,2.46,3.21,9.73,9.73,0,0,0,4.25,2.61,3.19,3.19,0,0,1-.48.19A9.2,9.2,0,0,1,11,19a28.38,28.38,0,0,1-2.31-3.22l-.56-.83a3,3,0,0,0-.44-.52Z"/><path class="cls-9" d="M7.09,15.08c.08-.15.15-.21.22-.17s.07.12,0,.26A27,27,0,0,0,6.11,19.5a16.18,16.18,0,0,0-.45,6c0,.23,0,.34,0,.31s-.09-.1-.12-.24A14.87,14.87,0,0,1,5.65,20a17.94,17.94,0,0,1,1.44-4.91Z"/><path class="cls-9" d="M32.91,21.61l-.09.14-.14-.07A3.32,3.32,0,0,0,30.79,21a2.85,2.85,0,0,0-1.25.41,3.55,3.55,0,0,0-1.36,1.31,2.52,2.52,0,0,0-.46,1.3l-.2-.29a2.32,2.32,0,0,1,.53-1.35,4,4,0,0,1,1.38-1.24,2.94,2.94,0,0,1,1.4-.35,3.86,3.86,0,0,1,1.89.61A6.78,6.78,0,0,1,33.55,20a1.64,1.64,0,0,1,1-.63,2,2,0,0,1,1.41.48,14.34,14.34,0,0,1,2.1,2l.09.44A18.41,18.41,0,0,0,36,20.23a2.23,2.23,0,0,0-1.49-.62c-.29.05-.61.34-1,.88a6.37,6.37,0,0,0-.6,1.12Z"/><path class="cls-9" d="M29.28,9.26c-.12-.15-.16-.25-.14-.29s.12,0,.29.15a6.46,6.46,0,0,1,1.28,2,22,22,0,0,1,1.06,2.66c.09.28.1.42,0,.42s-.14-.12-.21-.33a18.68,18.68,0,0,0-1.39-3.16,10.8,10.8,0,0,0-.91-1.42Z"/><path class="cls-9" d="M29.16,7.86a9.63,9.63,0,0,1,2.92,1.9A15.92,15.92,0,0,1,35,13.36h-.27A15,15,0,0,0,31.91,10a9.15,9.15,0,0,0-2.73-1.73c-.11-.05-.19-.05-.23,0s-.19.25-.24.56a9.79,9.79,0,0,0-.09,1.1,21.84,21.84,0,0,1-.22,2.51,8.91,8.91,0,0,1-.89,2.78L27.35,15a8.78,8.78,0,0,0,.85-2.72,21,21,0,0,0,.21-2.45c0-.64,0-1.08.05-1.31a.93.93,0,0,1,.25-.68l.45,0Z"/><path class="cls-9" d="M37.73,21.23l-.47-1.86.22,0,.45,1.79.26,1.05q.14.57.15.48a8.32,8.32,0,0,0,0-1v-.2a14.1,14.1,0,0,0-.18-2.24l.25-.09a14.17,14.17,0,0,1,.19,2.48,7.28,7.28,0,0,1-.09,1.2c0,.18-.1.27-.17.28s-.17-.11-.25-.36-.2-.7-.41-1.55Z"/><path class="cls-9" d="M27.38,8.27a8.85,8.85,0,0,1-.14-1.2,1,1,0,0,1,.14-.61.78.78,0,0,1,.68-.2,4,4,0,0,1,1.31.35,14.49,14.49,0,0,1,4.16,3,16.79,16.79,0,0,1,2.89,3.85l-.35,0a16.82,16.82,0,0,0-2.76-3.63,16.44,16.44,0,0,0-3.26-2.53,4.2,4.2,0,0,0-1.95-.74.59.59,0,0,0-.44.15.68.68,0,0,0-.1.44,6.3,6.3,0,0,0,.13,1.09,4.47,4.47,0,0,1,0,.59l0,.76A16.58,16.58,0,0,1,27.5,12c-.12.87-.29,1.74-.5,2.61a1.18,1.18,0,0,1-.12-.36,23,23,0,0,0,.51-3.44,10.54,10.54,0,0,0,0-2.5Z"/><path class="cls-9" d="M29.42,46.18l.15-.22a24.45,24.45,0,0,0,2.25,1.64l2.38,1.65a2.57,2.57,0,0,0,.83.41,1.16,1.16,0,0,0,.2.32A2.66,2.66,0,0,1,34,49.6c-.45-.29-1.29-.89-2.52-1.79a20.65,20.65,0,0,1-2.07-1.63Z"/><path class="cls-9" d="M35.54,44.38a2.78,2.78,0,0,1,.74.34,13.35,13.35,0,0,1,1.35.85q1.9,1.35,2,2.31l-.29,0c-.1-.47-.66-1.1-1.71-1.88a16.52,16.52,0,0,0-2.44-1.52l.06-.05.28,0Z"/><path class="cls-9" d="M32.8,32.76l0-.4a11,11,0,0,1,3.72,2.8A6.36,6.36,0,0,1,38,39.92a6.24,6.24,0,0,1-2.75,4.82,7.34,7.34,0,0,1-3.61,1.36l-.52-.05c-.11,0,0-.1.28-.15a8.83,8.83,0,0,0,3.38-1.38,6,6,0,0,0,2.84-4.63,6.21,6.21,0,0,0-1.38-4.54,10,10,0,0,0-3.39-2.59Z"/><path class="cls-9" d="M39.09,49.2,39,48.91a3.68,3.68,0,0,0,.69.34,3.37,3.37,0,0,0,.54.17h0c.09,0,0-.2-.21-.65a1.92,1.92,0,0,0-.59-.8L39,48a1,1,0,0,0-.32.26.84.84,0,0,0-.2-.08,2,2,0,0,1,.37-.36.91.91,0,0,1,.69-.12c.27.05.55.41.86,1.09s.37,1,.2,1a3.73,3.73,0,0,1-.81-.23,3.6,3.6,0,0,1-.68-.33Z"/><path class="cls-9" d="M38.68,48.24a3.38,3.38,0,0,1,.59.92,3.66,3.66,0,0,1,.43,1.4c0,.13,0,.21-.05.23s-.16,0-.35,0a5.69,5.69,0,0,1-.83-.38,8.23,8.23,0,0,1-.91-.51v-.24a8.41,8.41,0,0,0,1,.55,2.19,2.19,0,0,0,.79.28c.07,0,0-.33-.26-.91a4.31,4.31,0,0,0-.56-1.06,1.16,1.16,0,0,0-.39-.26.78.78,0,0,0-.46-.06.93.93,0,0,0-.48.28,2.82,2.82,0,0,0-.29.39l-.11-.09-.11-.09a1.83,1.83,0,0,1,.36-.43,1.3,1.3,0,0,1,.58-.34,1.06,1.06,0,0,1,.54.07,1.57,1.57,0,0,1,.47.3Z"/><path class="cls-9" d="M37,49a.84.84,0,0,0-.65-.34c-.18,0-.42.14-.7.43s-.4.54-.34.72a3.39,3.39,0,0,0,1.22.59,8.47,8.47,0,0,0,1.28.41c.08,0,0-.23-.19-.7A4.7,4.7,0,0,0,37,49Zm1.18,1.78c0,.21,0,.33,0,.37h-.33a12.85,12.85,0,0,1-1.53-.5A4.69,4.69,0,0,1,35,50a.27.27,0,0,1-.12-.19.33.33,0,0,1,.06-.2,2.62,2.62,0,0,1,.39-.67,1.1,1.1,0,0,1,.95-.51,1.57,1.57,0,0,1,.74.28,1.53,1.53,0,0,1,.44.54,7.24,7.24,0,0,1,.67,1.56Z"/><path class="cls-9" d="M39.87,14.85l-.8-.18-.24-.24a7.18,7.18,0,0,1,1.06.22,1.75,1.75,0,0,1,.73.31.13.13,0,0,1,0,.13,2.47,2.47,0,0,1-.82.62l-.1-.18a5.29,5.29,0,0,0,.7-.47,2.3,2.3,0,0,0-.55-.21Z"/><path class="cls-9" d="M41.69,17.18a.17.17,0,0,1,0,.14c-.06.12-.62.25-1.69.38l0-.21a9.06,9.06,0,0,0,1.46-.26,2.07,2.07,0,0,0-.54-.5,4.49,4.49,0,0,0-1.06-.59v-.22a4.82,4.82,0,0,1,1.19.65,1.92,1.92,0,0,1,.62.61Z"/><path class="cls-9" d="M40,17.8a5.35,5.35,0,0,1,.84,1.36l0,.09a5.09,5.09,0,0,1-2-.19L39,18.9a8.42,8.42,0,0,0,1.62.19A9.64,9.64,0,0,0,39.85,18L40,17.8Z"/><path class="cls-9" d="M28.57,16a9.45,9.45,0,0,1,3.31-2,7.76,7.76,0,0,1,3.77-.7,6.83,6.83,0,0,1,3.27,1.15,3.06,3.06,0,0,1,1.27,2.3,2.29,2.29,0,0,1-.78,2.11,3.07,3.07,0,0,1-1.72.6,5.21,5.21,0,0,1-1.89-.2,5.29,5.29,0,0,0-1.95-.09,11.44,11.44,0,0,0-2.59.56Q28,20.8,27.3,22.8l-.13-.29q.9-2.13,4.14-3.15a11.76,11.76,0,0,1,2.59-.51,5.47,5.47,0,0,1,2,.14,5,5,0,0,0,1.75.2,2.9,2.9,0,0,0,1.59-.54,2.13,2.13,0,0,0,.7-1.95,2.76,2.76,0,0,0-1.14-2.1,6.73,6.73,0,0,0-3.09-1,7.45,7.45,0,0,0-3.56.64,12.1,12.1,0,0,0-3.41,2L28.57,16Z"/><path class="cls-9" d="M5,31.11a1.41,1.41,0,0,0,0,.65s.14,0,.3,0l.52-.26.11.19L5.25,32q-.36.16-.45.09T5,29.72l.11.39c-.07.37-.12.7-.15,1Z"/><path class="cls-9" d="M6.44,33.08c.08.37.16.57.23.6s.2-.08.4-.29l.59-.68.28.08c-.73.87-1.17,1.31-1.33,1.31A.2.2,0,0,1,6.46,34a2.46,2.46,0,0,1-.28-1,4.65,4.65,0,0,1,0-1.32.89.89,0,0,1,.18.33,5.14,5.14,0,0,0,.12,1.06Z"/><path class="cls-9" d="M9.23,34.49H9a1.91,1.91,0,0,1-.52-.72,6.43,6.43,0,0,1-.41-1l.22,0a5.31,5.31,0,0,0,.46.89c.23.35.38.43.46.24a10,10,0,0,0,.49-1.71l.25-.18-.29,1.4q-.22.91-.42,1Z"/><path class="cls-9" d="M16.26,11.43l.31.06a7,7,0,0,0-.35,2.64,20,20,0,0,0,.28,2.78,13.09,13.09,0,0,1,.21,2.25q0,.69-.09,1.62l-.29.31a10.73,10.73,0,0,0,.07-1.61,15.11,15.11,0,0,0-.24-2.39A16,16,0,0,1,15.85,14a6.55,6.55,0,0,1,.41-2.58Z"/><path class="cls-9" d="M26.89,21.58c.07,0,.12,0,.14,0l.12,0a13.81,13.81,0,0,0,1.06,3.57,10.11,10.11,0,0,0,1.41,2.45l.2.22q.84,1,1.35,1.68a14.92,14.92,0,0,1,1.59,2.72,13.63,13.63,0,0,1,.79,2.36,10.46,10.46,0,0,1,.28,2.36,11.67,11.67,0,0,1-.57,3.4,12,12,0,0,1-3.87,6.2,12,12,0,0,1-6.78,2.17l.22-.15a.74.74,0,0,0,.22-.15,11.23,11.23,0,0,0,6.21-2.24,12.93,12.93,0,0,0,3.66-6,10.57,10.57,0,0,0,.56-3.36,11.1,11.1,0,0,0-1-4.46A14.48,14.48,0,0,0,31,29.57c-.35-.48-.79-1-1.33-1.64l-.2-.24A10.49,10.49,0,0,1,28,25.21a14.66,14.66,0,0,1-1.11-3.63Z"/><path class="cls-9" d="M16.57,10.63a5.34,5.34,0,0,1,1-1.15,5.56,5.56,0,0,1,1.16-.87l0,.44a5,5,0,0,0-1.76,1.68l-.33-.1Z"/><path class="cls-9" d="M26,20.54s-.06-.07,0-.14.06-.08.14-.06a4.35,4.35,0,0,1,.55.24c.06,0,.08.06.07.09l-.07,0-.31-.06a1.07,1.07,0,0,1-.33-.11Z"/><path class="cls-9" d="M27.89,19.91a.94.94,0,0,1,0-.43c0-.06,0-.09.07-.08s.07,0,.09.1a1.79,1.79,0,0,1-.06.42C28,20,28,20,28,20a.13.13,0,0,1-.07-.11Z"/><path class="cls-9" d="M15.35,21.27a4.11,4.11,0,0,0,1.3-.8.49.49,0,0,1,.24-.21c.09,0,.09.08,0,.31a2.62,2.62,0,0,1-1.27,1,9.37,9.37,0,0,1-2.17.7A16,16,0,0,0,9.3,23.74a7.15,7.15,0,0,0-3.41,3.18,5.94,5.94,0,0,0-.57,2.29,3,3,0,0,0,1.51,2.94,2.19,2.19,0,0,0,2.47.07,6.32,6.32,0,0,0,1.57-1.82A20,20,0,0,1,13,27.48a5.75,5.75,0,0,1,3.83-2.05c.17,0,.24,0,.23.08s-.09.11-.25.12a5.75,5.75,0,0,0-3.68,2.14A18.79,18.79,0,0,0,11,30.82a4.69,4.69,0,0,1-1.62,1.8,2.61,2.61,0,0,1-2.66-.19,3.32,3.32,0,0,1-1.76-3.08,5.57,5.57,0,0,1,.61-2.6A8,8,0,0,1,9,23.45a15.21,15.21,0,0,1,4-1.39,9.94,9.94,0,0,0,2.34-.79Z"/><path class="cls-9" d="M18.26,11.44a.28.28,0,0,0-.16-.16,6,6,0,0,0-2.68-.55,11.16,11.16,0,0,0-2.23.43l-1.15.3-1.31.22A4.06,4.06,0,0,1,7.6,10.2,9.38,9.38,0,0,1,5.45,7a.33.33,0,0,0-.17-.16H5.05a.29.29,0,0,0-.19.29l0,.12a9.86,9.86,0,0,0,2.26,3.32,4.55,4.55,0,0,0,3.65,1.71,10.32,10.32,0,0,0,1.39-.23l1.18-.31a9.55,9.55,0,0,1,2.08-.4,5.49,5.49,0,0,1,2.42.49.33.33,0,0,0,.24,0,.25.25,0,0,0,.16-.16.33.33,0,0,0,0-.24Zm-2.83-1a5.57,5.57,0,0,1,2.75.62.66.66,0,0,1,.31.31.49.49,0,0,1,0,.41.44.44,0,0,1-.31.25l-.42,0a5.45,5.45,0,0,0-2.34-.48,9.75,9.75,0,0,0-2,.4l-1.21.32a10.36,10.36,0,0,1-1.43.26A4.7,4.7,0,0,1,7,10.84,9.9,9.9,0,0,1,4.69,7.33a.63.63,0,0,1,0-.43.42.42,0,0,1,.26-.31h.42a.56.56,0,0,1,.29.3,8.89,8.89,0,0,0,2.14,3.18,3.84,3.84,0,0,0,3,1.35A14.32,14.32,0,0,0,13.13,11a12.46,12.46,0,0,1,2.3-.5Z"/><path class="cls-9" d="M19.31,13.59A1.53,1.53,0,0,1,20,14a3.91,3.91,0,0,1,.86,1.47,4.41,4.41,0,0,1,.32,1.67c0,.18-.22.26-.65.26a3.32,3.32,0,0,1-1.61-.5.34.34,0,0,1-.16-.15l-.11-.27a5.39,5.39,0,0,1-.29-1A2.45,2.45,0,0,1,18.47,14a.69.69,0,0,1,.84-.45Zm.52.57a.8.8,0,0,0-.7-.27.48.48,0,0,0-.42.35,2.55,2.55,0,0,0-.05,1.2,5.61,5.61,0,0,0,.3,1.19,2,2,0,0,0,1.13.47,3.69,3.69,0,0,0,.88,0l0-.22a3.91,3.91,0,0,0-.36-1.49,4.15,4.15,0,0,0-.8-1.25Z"/><path class="cls-9" d="M21,17.22l-1.15-.06L19.54,17a3.54,3.54,0,0,1-.39-1.8q.06-.72.48-.84c.37-.1.71.17,1,.79a4.37,4.37,0,0,1,.4,2.06Z"/><path class="cls-9" d="M26,11.71c-.18-.12-.27,0-.27.46A4.67,4.67,0,0,0,26,13.65,4.33,4.33,0,0,0,26.66,15a.6.6,0,0,0,.3-.25,8,8,0,0,0-.4-1.93A2.57,2.57,0,0,0,26,11.71Zm-.22-.24a.35.35,0,0,1,.3.06,2.57,2.57,0,0,1,.63,1.15,9.64,9.64,0,0,1,.44,2.11v.06a.68.68,0,0,1-.43.37h-.08l0,0a5.24,5.24,0,0,1-.81-1.71,3.39,3.39,0,0,1-.21-1.74.43.43,0,0,1,.21-.27Z"/><path class="cls-9" d="M26.67,15.14a3.35,3.35,0,0,1-.74-1.39l-.25-.91c-.05-.3,0-.5.08-.6s.23-.07.38.07a2.3,2.3,0,0,1,.48.84,8,8,0,0,1,.45,1.67,2.52,2.52,0,0,1-.4.32Z"/><path class="cls-9" d="M18.89,8.23c-.15.6-.18.94-.08,1a.94.94,0,0,0,.58.22,2,2,0,0,0,.76-.07,1,1,0,0,0,.6-.41.65.65,0,0,0,.13-.57c0-.13-.29-.36-.76-.68s-.76-.48-.86-.44-.22.35-.37.93Zm-.35,1a3.23,3.23,0,0,1,.11-1.15c.13-.66.28-1,.45-1.09s.55.1,1.1.5a2.66,2.66,0,0,1,.86.79.92.92,0,0,1-.1.78,1.4,1.4,0,0,1-.75.52,1.75,1.75,0,0,1-1.15,0c-.31-.11-.48-.23-.52-.37Z"/><path class="cls-9" d="M30,36.37A7.21,7.21,0,0,0,32.11,35a3.11,3.11,0,0,0,1-1.41l.09.11a3.42,3.42,0,0,1-1,1.54A6.84,6.84,0,0,1,30,36.62a13,13,0,0,1-7.7.45l0-.16A13,13,0,0,0,30,36.37Z"/><path class="cls-9" d="M24.36,40.22l0-.16a12.35,12.35,0,0,0,5.72-.55,6.1,6.1,0,0,0,3.48-2.43l0,.22a6.22,6.22,0,0,1-3.54,2.47,11.28,11.28,0,0,1-5.71.45Z"/><path class="cls-9" d="M25.1,42.6l0-.15a10.67,10.67,0,0,0,4.57-.25,6.35,6.35,0,0,0,3.09-1.57l.06.21a6.55,6.55,0,0,1-3.2,1.64,8.88,8.88,0,0,1-4.56.12Z"/><path class="cls-9" d="M25,45.54l0-.16a11.82,11.82,0,0,0,3.54-.3,6.9,6.9,0,0,0,2.81-1.36l.06.21a7.13,7.13,0,0,1-2.87,1.39,10.71,10.71,0,0,1-3.56.22Z"/><path class="cls-9" d="M24.18,47.08a8.06,8.06,0,0,0,2.93-.18A8.09,8.09,0,0,0,29.72,46l-.36.4a6.44,6.44,0,0,1-2.44.83,8.68,8.68,0,0,1-2.77.06l0-.17Z"/><path class="cls-9" d="M15.29,26l.37-.2L14.82,29c-.44,1.66-.76,2.91-1,3.75-.33,1.39-.58,2.62-.74,3.7l-.17.07a.49.49,0,0,0-.21.16l-.08.19c.17-1.13.42-2.42.76-3.86.24-1,.58-2.34,1-3.92L15.29,26Z"/><path class="cls-9" d="M20.15,20.85l.19,0a43.91,43.91,0,0,0-.88,8c0,3,.6,5.27,1.75,6.85l-.31-.08a11.29,11.29,0,0,1-1.77-6.76,41.15,41.15,0,0,1,1-8Z"/><path class="cls-9" d="M27.06,22.07l.13.1a3.37,3.37,0,0,1-2.36,1.33,8.82,8.82,0,0,1-3.07-.14,5.36,5.36,0,0,1-1.94-.66l.1-.13a5,5,0,0,0,1.8.59,8.72,8.72,0,0,0,3.06.14,3.28,3.28,0,0,0,2.28-1.23Z"/><path class="cls-9" d="M26.05,25.55A4,4,0,0,0,27.12,25a1.75,1.75,0,0,0,.59-.68l.15.06a2,2,0,0,1-.6.76,3.86,3.86,0,0,1-1.12.61,7.38,7.38,0,0,1-2.95.36A8.71,8.71,0,0,1,19.57,25l.08-.14a8.88,8.88,0,0,0,3.49,1,7.48,7.48,0,0,0,2.91-.33Z"/><path class="cls-9" d="M28.9,26.83l.15.06a2.22,2.22,0,0,1-.65.85,4.51,4.51,0,0,1-1.17.71,8.48,8.48,0,0,1-3.39.62,12,12,0,0,1-4.48-.91l.06-.15a11.44,11.44,0,0,0,4.43.85,8.61,8.61,0,0,0,3.37-.65,4.61,4.61,0,0,0,1.09-.63,1.9,1.9,0,0,0,.59-.75Z"/><path class="cls-9" d="M30.3,28.65l.16,0A2.41,2.41,0,0,1,30,29.78a3.88,3.88,0,0,1-1.17,1A8.38,8.38,0,0,1,25,31.91a13.35,13.35,0,0,1-5.43-.77l-.05-.21a13.1,13.1,0,0,0,5.4.75,8.5,8.5,0,0,0,3.79-1.1,4.46,4.46,0,0,0,1.13-.93,2.1,2.1,0,0,0,.5-1Z"/><path class="cls-9" d="M30.29,32.9a4.1,4.1,0,0,0,1.06-1.06,2.11,2.11,0,0,0,.41-1.12h.17A2.6,2.6,0,0,1,31.52,32a4.18,4.18,0,0,1-1.09,1.14,8.78,8.78,0,0,1-4.05,1.47A15.31,15.31,0,0,1,20.19,34l-.06-.2a15.22,15.22,0,0,0,6.14.51,8.59,8.59,0,0,0,4-1.45Z"/><path class="cls-9" d="M19.12,20a2.25,2.25,0,0,1-.21-.7c0-.19,0-.29,0-.3s.1.08.16.29a2.68,2.68,0,0,0,.76,1.17,3.4,3.4,0,0,0,.93.59,1.67,1.67,0,0,0,.83.19l.11.19a2.65,2.65,0,0,1-1-.14,3.26,3.26,0,0,1-1-.58,2.15,2.15,0,0,1-.55-.71Z"/><path class="cls-9" d="M23.77,38.82a9.9,9.9,0,0,1,1.64,5.37,5.17,5.17,0,0,1-1,2.82A5.89,5.89,0,0,1,22,49.08c-.22.1-.34.13-.37.08s.06-.13.25-.23A6.09,6.09,0,0,0,24,47a5.34,5.34,0,0,0,1-2.79A9.46,9.46,0,0,0,23.48,39a16.38,16.38,0,0,0-1.39-2A8,8,0,0,0,21,35.75c-.49-.4-.69-.59-.58-.58a2.48,2.48,0,0,1,.7.41,7.05,7.05,0,0,1,1.22,1.2,13.9,13.9,0,0,1,1.46,2Z"/><path class="cls-9" d="M13.18,36.39a8.7,8.7,0,0,0-1,5.09,8.6,8.6,0,0,0,1.27,4.35,8.75,8.75,0,0,0,3.8,3.25c.25.11.38.2.37.27s-.13.06-.39,0a7,7,0,0,1-2.2-1.18,9.36,9.36,0,0,1-1.89-2.08,8.47,8.47,0,0,1-1.07-2.22,10,10,0,0,1-.46-3A9.55,9.55,0,0,1,12,38.32,5.42,5.42,0,0,1,13.18,36c.25-.25.38-.36.39-.34a2.91,2.91,0,0,1-.39.76Z"/><path class="cls-9" d="M28.27,16.13A3.24,3.24,0,0,0,27,15a.19.19,0,0,1-.05-.17c0-.06.07-.08.16,0a4,4,0,0,1,1.35,1.08,3.17,3.17,0,0,1,.7,1.59,3.79,3.79,0,0,1-1.43,3.92,5.57,5.57,0,0,1-2.41.91,6.14,6.14,0,0,1-2.1,0,3.84,3.84,0,0,1-1.34-.55,3.09,3.09,0,0,1-.93-.9,3.08,3.08,0,0,1-.35-1,.34.34,0,0,1,0-.28c0-.05.09,0,.13.13a3.64,3.64,0,0,0,1.31,1.83,3.42,3.42,0,0,0,1.44.51,6.1,6.1,0,0,0,2.29-.17,3.87,3.87,0,0,0,2.78-2.09,3.58,3.58,0,0,0,.26-2.17,3.48,3.48,0,0,0-.62-1.42Z"/><path class="cls-9" d="M26.29,12a.74.74,0,0,0-.16-.2L26,11.6a3.61,3.61,0,0,0-1.06-1.82,4.91,4.91,0,0,0-2.44-1.46,4.25,4.25,0,0,0-1.63-.07L20.63,8a5.51,5.51,0,0,1,1.9.09,5.11,5.11,0,0,1,2.6,1.53A4,4,0,0,1,26.29,12Z"/><path class="cls-8" d="M20.19,14.94a.49.49,0,0,1,0,.34.32.32,0,0,1-.24.16.32.32,0,0,1-.28,0,.46.46,0,0,1-.18-.3.49.49,0,0,1,0-.34.34.34,0,0,1,.24-.17.32.32,0,0,1,.28.06.41.41,0,0,1,.17.3Z"/><path class="cls-8" d="M26.2,12.77a.86.86,0,0,1,0,.31c0,.1,0,.15-.1.17s-.11,0-.17-.09a.74.74,0,0,1-.14-.28.88.88,0,0,1,0-.31.18.18,0,0,1,.1-.17c.05,0,.1,0,.17.09a.67.67,0,0,1,.14.28Z"/><path class="cls-5" d="M27.29.24l.32,0a.43.43,0,0,1,.22.22,6.06,6.06,0,0,1,.57,3.39,3.38,3.38,0,0,1-1.47,2.38,4.36,4.36,0,0,0-1.47,1.53,3.81,3.81,0,0,0-.3,2,.46.46,0,0,1-.08.3.4.4,0,0,1-.26.15A.29.29,0,0,1,24.5,10a.94.94,0,0,1-.14-.52,4.37,4.37,0,0,1,.39-2.19,5,5,0,0,1,1.72-1.78A2.61,2.61,0,0,0,27.6,3.6,5.48,5.48,0,0,0,27.08.77a.37.37,0,0,1,0-.31.37.37,0,0,1,.22-.22Z"/><path class="cls-6" d="M25.1,7.67a2.25,2.25,0,0,1,.74-.87,1.87,1.87,0,0,1,.77-.37A2.91,2.91,0,0,0,26,7a3.7,3.7,0,0,0-.6.9A3,3,0,0,0,25.14,9l0,.76a.47.47,0,0,1,0,.26.31.31,0,0,1-.21.12c-.1,0-.14-.26-.14-.82a4,4,0,0,1,.32-1.63Z"/><path class="cls-9" d="M27.92.4a6.41,6.41,0,0,1,.64,3.5,3.34,3.34,0,0,1-1.47,2.38,6.37,6.37,0,0,0-1,.81,2.64,2.64,0,0,0-.65,1,2.84,2.84,0,0,0-.14.7,6,6,0,0,0,0,.95.58.58,0,0,1-.12.42.42.42,0,0,1-.32.16q-.4,0-.48-.54a6.35,6.35,0,0,1,0-1,3.58,3.58,0,0,1,.17-1.1,3.42,3.42,0,0,1,.66-1.13,7.06,7.06,0,0,1,1.19-1,2.56,2.56,0,0,0,1.12-1.81A5.94,5.94,0,0,0,27,.81a.77.77,0,0,1,0-.49A.48.48,0,0,1,27.21,0a.55.55,0,0,1,.4,0l.18.15.13.21ZM27.57.32h-.24a.27.27,0,0,0-.18.28l0,.12a5.92,5.92,0,0,1,.56,2.38,3.43,3.43,0,0,1-.3,1.46,2.69,2.69,0,0,1-.9,1,5.73,5.73,0,0,0-1.4,1.28,3,3,0,0,0-.59,1.19,6.38,6.38,0,0,0,0,1.62c0,.25.12.37.29.37A.22.22,0,0,0,25,10a.33.33,0,0,0,.06-.23,4.07,4.07,0,0,1,.35-2.19,4.66,4.66,0,0,1,1.47-1.43A3.3,3.3,0,0,0,28.3,3.8,6,6,0,0,0,27.74.48a.33.33,0,0,0-.17-.16Z"/></g></g></svg>